<?xml version="1.0" encoding="utf-8" standalone="no"?>
<!DOCTYPE svg PUBLIC "-//W3C//DTD SVG 1.1//EN"
  "http://www.w3.org/Graphics/SVG/1.1/DTD/svg11.dtd">
<svg xmlns:xlink="http://www.w3.org/1999/xlink" width="1152pt" height="648pt" viewBox="0 0 1152 648" xmlns="http://www.w3.org/2000/svg" version="1.1">
 <metadata>
  <rdf:RDF xmlns:dc="http://purl.org/dc/elements/1.1/" xmlns:cc="http://creativecommons.org/ns#" xmlns:rdf="http://www.w3.org/1999/02/22-rdf-syntax-ns#">
   <cc:Work>
    <dc:type rdf:resource="http://purl.org/dc/dcmitype/StillImage"/>
    <dc:date>2023-11-29T16:42:41.367202</dc:date>
    <dc:format>image/svg+xml</dc:format>
    <dc:creator>
     <cc:Agent>
      <dc:title>Matplotlib v3.7.1, https://matplotlib.org/</dc:title>
     </cc:Agent>
    </dc:creator>
   </cc:Work>
  </rdf:RDF>
 </metadata>
 <defs>
  <style type="text/css">*{stroke-linejoin: round; stroke-linecap: butt}</style>
 </defs>
 <g id="figure_1">
  <g id="patch_1">
   <path d="M 0 648 
L 1152 648 
L 1152 0 
L 0 0 
z
" style="fill: #ffffff"/>
  </g>
  <g id="axes_1">
   <g id="patch_2">
    <path d="M 137.738 575.336 
L 1116.046727 575.336 
L 1116.046727 42.09283 
L 137.738 42.09283 
z
" style="fill: #ffffff"/>
   </g>
   <g id="PolyCollection_1">
    <defs>
     <path id="m461945a724" d="M 268.642441 -102.948188 
L 194.58978 -102.948188 
L 192.547006 -107.977767 
L 190.653408 -113.007347 
L 188.927975 -118.036927 
L 187.385581 -123.066506 
L 186.037004 -128.096086 
L 184.889195 -133.125666 
L 183.945747 -138.155245 
L 183.207523 -143.184825 
L 182.673355 -148.214405 
L 182.34076 -153.243984 
L 182.206579 -158.273564 
L 182.267497 -163.303143 
L 182.52038 -168.332723 
L 182.962406 -173.362303 
L 183.590986 -178.391882 
L 184.403498 -183.421462 
L 185.396854 -188.451042 
L 186.566975 -193.480621 
L 187.908216 -198.510201 
L 189.412819 -203.539781 
L 191.070457 -208.56936 
L 192.867916 -213.59894 
L 194.788956 -218.62852 
L 196.814376 -223.658099 
L 198.922284 -228.687679 
L 201.088565 -233.717259 
L 203.287501 -238.746838 
L 205.492525 -243.776418 
L 207.677038 -248.805998 
L 209.815255 -253.835577 
L 211.883012 -258.865157 
L 213.858502 -263.894737 
L 215.722896 -268.924316 
L 217.460821 -273.953896 
L 219.060676 -278.983476 
L 220.514785 -284.013055 
L 221.819391 -289.042635 
L 222.97449 -294.072215 
L 223.983549 -299.101794 
L 224.853105 -304.131374 
L 225.592288 -309.160954 
L 226.212288 -314.190533 
L 226.725801 -319.220113 
L 227.146464 -324.249693 
L 227.488316 -329.279272 
L 227.765296 -334.308852 
L 227.990796 -339.338432 
L 228.177283 -344.368011 
L 228.335994 -349.397591 
L 228.476708 -354.427171 
L 228.60761 -359.45675 
L 228.735222 -364.48633 
L 228.864415 -369.51591 
L 228.998486 -374.545489 
L 229.139289 -379.575069 
L 229.287413 -384.604649 
L 229.442387 -389.634228 
L 229.602903 -394.663808 
L 229.767049 -399.693387 
L 229.932525 -404.722967 
L 230.096849 -409.752547 
L 230.257532 -414.782126 
L 230.412222 -419.811706 
L 230.558814 -424.841286 
L 230.695516 -429.870865 
L 230.820896 -434.900445 
L 230.933878 -439.930025 
L 231.033726 -444.959604 
L 231.119999 -449.989184 
L 231.192497 -455.018764 
L 231.251196 -460.048343 
L 231.296183 -465.077923 
L 231.327593 -470.107503 
L 231.345561 -475.137082 
L 231.35018 -480.166662 
L 231.341478 -485.196242 
L 231.319416 -490.225821 
L 231.283897 -495.255401 
L 231.234797 -500.284981 
L 231.172015 -505.31456 
L 231.095522 -510.34414 
L 231.005441 -515.37372 
L 230.902109 -520.403299 
L 230.786151 -525.432879 
L 230.658545 -530.462459 
L 230.520672 -535.492038 
L 230.374349 -540.521618 
L 230.221835 -545.551198 
L 230.065818 -550.580777 
L 229.909365 -555.610357 
L 229.755848 -560.639937 
L 229.608839 -565.669516 
L 229.471991 -570.699096 
L 229.348889 -575.728676 
L 229.242905 -580.758255 
L 229.157046 -585.787835 
L 229.093818 -590.817415 
L 229.055104 -595.846994 
L 229.042072 -600.876574 
L 234.190148 -600.876574 
L 234.190148 -600.876574 
L 234.177117 -595.846994 
L 234.138403 -590.817415 
L 234.075174 -585.787835 
L 233.989315 -580.758255 
L 233.883331 -575.728676 
L 233.760229 -570.699096 
L 233.623381 -565.669516 
L 233.476373 -560.639937 
L 233.322855 -555.610357 
L 233.166402 -550.580777 
L 233.010385 -545.551198 
L 232.857871 -540.521618 
L 232.711548 -535.492038 
L 232.573675 -530.462459 
L 232.44607 -525.432879 
L 232.330112 -520.403299 
L 232.226779 -515.37372 
L 232.136698 -510.34414 
L 232.060206 -505.31456 
L 231.997423 -500.284981 
L 231.948324 -495.255401 
L 231.912805 -490.225821 
L 231.890743 -485.196242 
L 231.882041 -480.166662 
L 231.88666 -475.137082 
L 231.904627 -470.107503 
L 231.936038 -465.077923 
L 231.981024 -460.048343 
L 232.039724 -455.018764 
L 232.112222 -449.989184 
L 232.198495 -444.959604 
L 232.298342 -439.930025 
L 232.411324 -434.900445 
L 232.536704 -429.870865 
L 232.673407 -424.841286 
L 232.819998 -419.811706 
L 232.974688 -414.782126 
L 233.135372 -409.752547 
L 233.299696 -404.722967 
L 233.465172 -399.693387 
L 233.629317 -394.663808 
L 233.789834 -389.634228 
L 233.944807 -384.604649 
L 234.092931 -379.575069 
L 234.233735 -374.545489 
L 234.367806 -369.51591 
L 234.496999 -364.48633 
L 234.624611 -359.45675 
L 234.755512 -354.427171 
L 234.896227 -349.397591 
L 235.054937 -344.368011 
L 235.241424 -339.338432 
L 235.466925 -334.308852 
L 235.743904 -329.279272 
L 236.085756 -324.249693 
L 236.506419 -319.220113 
L 237.019932 -314.190533 
L 237.639933 -309.160954 
L 238.379115 -304.131374 
L 239.248671 -299.101794 
L 240.257731 -294.072215 
L 241.41283 -289.042635 
L 242.717435 -284.013055 
L 244.171544 -278.983476 
L 245.771399 -273.953896 
L 247.509324 -268.924316 
L 249.373719 -263.894737 
L 251.349209 -258.865157 
L 253.416965 -253.835577 
L 255.555182 -248.805998 
L 257.739696 -243.776418 
L 259.944719 -238.746838 
L 262.143655 -233.717259 
L 264.309936 -228.687679 
L 266.417845 -223.658099 
L 268.443264 -218.62852 
L 270.364304 -213.59894 
L 272.161763 -208.56936 
L 273.819402 -203.539781 
L 275.324005 -198.510201 
L 276.665245 -193.480621 
L 277.835366 -188.451042 
L 278.828722 -183.421462 
L 279.641234 -178.391882 
L 280.269814 -173.362303 
L 280.71184 -168.332723 
L 280.964723 -163.303143 
L 281.025642 -158.273564 
L 280.891461 -153.243984 
L 280.558865 -148.214405 
L 280.024697 -143.184825 
L 279.286473 -138.155245 
L 278.343026 -133.125666 
L 277.195216 -128.096086 
L 275.846639 -123.066506 
L 274.304245 -118.036927 
L 272.578812 -113.007347 
L 270.685214 -107.977767 
L 268.642441 -102.948188 
z
" style="stroke: #ff7f0e; stroke-opacity: 0.3"/>
    </defs>
    <g clip-path="url(#p5a10a83a79)">
     <use xlink:href="#m461945a724" x="0" y="648" style="fill: #ff7f0e; fill-opacity: 0.3; stroke: #ff7f0e; stroke-opacity: 0.3"/>
    </g>
   </g>
   <g id="PolyCollection_2">
    <defs>
     <path id="m8e9f5a0601" d="M 465.552802 -105.815627 
L 392.955672 -105.815627 
L 391.676133 -107.424402 
L 390.43807 -109.033176 
L 389.247363 -110.641951 
L 388.10963 -112.250725 
L 387.030173 -113.859499 
L 386.013919 -115.468274 
L 385.06537 -117.077048 
L 384.188558 -118.685823 
L 383.386994 -120.294597 
L 382.66364 -121.903371 
L 382.020866 -123.512146 
L 381.460431 -125.12092 
L 380.983463 -126.729695 
L 380.590441 -128.338469 
L 380.281194 -129.947244 
L 380.054901 -131.556018 
L 379.910101 -133.164792 
L 379.844705 -134.773567 
L 379.856027 -136.382341 
L 379.940806 -137.991116 
L 380.095249 -139.59989 
L 380.31507 -141.208664 
L 380.595541 -142.817439 
L 380.931544 -144.426213 
L 381.317628 -146.034988 
L 381.748071 -147.643762 
L 382.216944 -149.252537 
L 382.718174 -150.861311 
L 383.245614 -152.470085 
L 383.793104 -154.07886 
L 384.35454 -155.687634 
L 384.923935 -157.296409 
L 385.495482 -158.905183 
L 386.063605 -160.513958 
L 386.623018 -162.122732 
L 387.16877 -163.731506 
L 387.696285 -165.340281 
L 388.201404 -166.949055 
L 388.680409 -168.55783 
L 389.130052 -170.166604 
L 389.54757 -171.775378 
L 389.930696 -173.384153 
L 390.277666 -174.992927 
L 390.587215 -176.601702 
L 390.858575 -178.210476 
L 391.091459 -179.819251 
L 391.286044 -181.428025 
L 391.442957 -183.036799 
L 391.563243 -184.645574 
L 391.648341 -186.254348 
L 391.700058 -187.863123 
L 391.720529 -189.471897 
L 391.712194 -191.080671 
L 391.677758 -192.689446 
L 391.620161 -194.29822 
L 391.542539 -195.906995 
L 391.448198 -197.515769 
L 391.340576 -199.124544 
L 391.223212 -200.733318 
L 391.099719 -202.342092 
L 390.973749 -203.950867 
L 390.848967 -205.559641 
L 390.729025 -207.168416 
L 390.617534 -208.77719 
L 390.51804 -210.385965 
L 390.434001 -211.994739 
L 390.368762 -213.603513 
L 390.325535 -215.212288 
L 390.307378 -216.821062 
L 390.317175 -218.429837 
L 390.35762 -220.038611 
L 390.431194 -221.647385 
L 390.540155 -223.25616 
L 390.686522 -224.864934 
L 390.872057 -226.473709 
L 391.098261 -228.082483 
L 391.366357 -229.691258 
L 391.677286 -231.300032 
L 392.031702 -232.908806 
L 392.429964 -234.517581 
L 392.872138 -236.126355 
L 393.357996 -237.73513 
L 393.88702 -239.343904 
L 394.458407 -240.952678 
L 395.071075 -242.561453 
L 395.723678 -244.170227 
L 396.41461 -245.779002 
L 397.142028 -247.387776 
L 397.90386 -248.996551 
L 398.697829 -250.605325 
L 399.521467 -252.214099 
L 400.372138 -253.822874 
L 401.24706 -255.431648 
L 402.143325 -257.040423 
L 403.057924 -258.649197 
L 403.98777 -260.257972 
L 404.929718 -261.866746 
L 405.880595 -263.47552 
L 406.837219 -265.084295 
L 451.671254 -265.084295 
L 451.671254 -265.084295 
L 452.627878 -263.47552 
L 453.578756 -261.866746 
L 454.520704 -260.257972 
L 455.45055 -258.649197 
L 456.365149 -257.040423 
L 457.261414 -255.431648 
L 458.136336 -253.822874 
L 458.987007 -252.214099 
L 459.810645 -250.605325 
L 460.604613 -248.996551 
L 461.366446 -247.387776 
L 462.093863 -245.779002 
L 462.784796 -244.170227 
L 463.437398 -242.561453 
L 464.050067 -240.952678 
L 464.621454 -239.343904 
L 465.150478 -237.73513 
L 465.636336 -236.126355 
L 466.07851 -234.517581 
L 466.476772 -232.908806 
L 466.831187 -231.300032 
L 467.142117 -229.691258 
L 467.410213 -228.082483 
L 467.636417 -226.473709 
L 467.821952 -224.864934 
L 467.968319 -223.25616 
L 468.07728 -221.647385 
L 468.150854 -220.038611 
L 468.191298 -218.429837 
L 468.201096 -216.821062 
L 468.182939 -215.212288 
L 468.139711 -213.603513 
L 468.074472 -211.994739 
L 467.990433 -210.385965 
L 467.89094 -208.77719 
L 467.779449 -207.168416 
L 467.659507 -205.559641 
L 467.534725 -203.950867 
L 467.408755 -202.342092 
L 467.285261 -200.733318 
L 467.167898 -199.124544 
L 467.060276 -197.515769 
L 466.965935 -195.906995 
L 466.888313 -194.29822 
L 466.830715 -192.689446 
L 466.79628 -191.080671 
L 466.787945 -189.471897 
L 466.808416 -187.863123 
L 466.860132 -186.254348 
L 466.945231 -184.645574 
L 467.065517 -183.036799 
L 467.222429 -181.428025 
L 467.417015 -179.819251 
L 467.649899 -178.210476 
L 467.921258 -176.601702 
L 468.230808 -174.992927 
L 468.577778 -173.384153 
L 468.960904 -171.775378 
L 469.378421 -170.166604 
L 469.828064 -168.55783 
L 470.30707 -166.949055 
L 470.812189 -165.340281 
L 471.339704 -163.731506 
L 471.885456 -162.122732 
L 472.444869 -160.513958 
L 473.012992 -158.905183 
L 473.584538 -157.296409 
L 474.153934 -155.687634 
L 474.71537 -154.07886 
L 475.26286 -152.470085 
L 475.7903 -150.861311 
L 476.29153 -149.252537 
L 476.760403 -147.643762 
L 477.190846 -146.034988 
L 477.57693 -144.426213 
L 477.912933 -142.817439 
L 478.193404 -141.208664 
L 478.413225 -139.59989 
L 478.567668 -137.991116 
L 478.652447 -136.382341 
L 478.663769 -134.773567 
L 478.598373 -133.164792 
L 478.453572 -131.556018 
L 478.22728 -129.947244 
L 477.918033 -128.338469 
L 477.525011 -126.729695 
L 477.048042 -125.12092 
L 476.487608 -123.512146 
L 475.844834 -121.903371 
L 475.121479 -120.294597 
L 474.319916 -118.685823 
L 473.443104 -117.077048 
L 472.494555 -115.468274 
L 471.478301 -113.859499 
L 470.398844 -112.250725 
L 469.261111 -110.641951 
L 468.070403 -109.033176 
L 466.83234 -107.424402 
L 465.552802 -105.815627 
z
" style="stroke: #2ca02c; stroke-opacity: 0.3"/>
    </defs>
    <g clip-path="url(#p5a10a83a79)">
     <use xlink:href="#m8e9f5a0601" x="0" y="648" style="fill: #2ca02c; fill-opacity: 0.3; stroke: #2ca02c; stroke-opacity: 0.3"/>
    </g>
   </g>
   <g id="PolyCollection_3">
    <defs>
     <path id="mf8ece707a0" d="M 663.048842 -103.400941 
L 590.735885 -103.400941 
L 588.88082 -107.877155 
L 587.12958 -112.353369 
L 585.499122 -116.829584 
L 584.004065 -121.305798 
L 582.656272 -125.782012 
L 581.464509 -130.258226 
L 580.434199 -134.73444 
L 579.567277 -139.210654 
L 578.862165 -143.686868 
L 578.313853 -148.163082 
L 577.914108 -152.639296 
L 577.651786 -157.11551 
L 577.513242 -161.591725 
L 577.482832 -166.067939 
L 577.54348 -170.544153 
L 577.677287 -175.020367 
L 577.866172 -179.496581 
L 578.092499 -183.972795 
L 578.339692 -188.449009 
L 578.592787 -192.925223 
L 578.838923 -197.401437 
L 579.067734 -201.877652 
L 579.271647 -206.353866 
L 579.446052 -210.83008 
L 579.589362 -215.306294 
L 579.702953 -219.782508 
L 579.790979 -224.258722 
L 579.860097 -228.734936 
L 579.919087 -233.21115 
L 579.978412 -237.687364 
L 580.049715 -242.163578 
L 580.145298 -246.639793 
L 580.277584 -251.116007 
L 580.458603 -255.592221 
L 580.699511 -260.068435 
L 581.010168 -264.544649 
L 581.398786 -269.020863 
L 581.871663 -273.497077 
L 582.433007 -277.973291 
L 583.08485 -282.449505 
L 583.827067 -286.92572 
L 584.657464 -291.401934 
L 585.571964 -295.878148 
L 586.564838 -300.354362 
L 587.629005 -304.830576 
L 588.756348 -309.30679 
L 589.938055 -313.783004 
L 591.164955 -318.259218 
L 592.427839 -322.735432 
L 593.717741 -327.211647 
L 595.026185 -331.687861 
L 596.345368 -336.164075 
L 597.668297 -340.640289 
L 598.988861 -345.116503 
L 600.301843 -349.592717 
L 601.602887 -354.068931 
L 602.888417 -358.545145 
L 604.155518 -363.021359 
L 605.401804 -367.497573 
L 606.625263 -371.973788 
L 607.824107 -376.450002 
L 608.99663 -380.926216 
L 610.141085 -385.40243 
L 611.25559 -389.878644 
L 612.338056 -394.354858 
L 613.386154 -398.831072 
L 614.397317 -403.307286 
L 615.368761 -407.7835 
L 616.297549 -412.259715 
L 617.180662 -416.735929 
L 618.015097 -421.212143 
L 618.797969 -425.688357 
L 619.526618 -430.164571 
L 620.198716 -434.640785 
L 620.812364 -439.116999 
L 621.366178 -443.593213 
L 621.859363 -448.069427 
L 622.291769 -452.545641 
L 622.663925 -457.021856 
L 622.977063 -461.49807 
L 623.233116 -465.974284 
L 623.434703 -470.450498 
L 623.585095 -474.926712 
L 623.688167 -479.402926 
L 623.748337 -483.87914 
L 623.770487 -488.355354 
L 623.759884 -492.831568 
L 623.722077 -497.307783 
L 623.6628 -501.783997 
L 623.587858 -506.260211 
L 623.50302 -510.736425 
L 623.413898 -515.212639 
L 623.325844 -519.688853 
L 623.243836 -524.165067 
L 623.172384 -528.641281 
L 623.115439 -533.117495 
L 623.076324 -537.593709 
L 623.057674 -542.069924 
L 623.061402 -546.546138 
L 630.723325 -546.546138 
L 630.723325 -546.546138 
L 630.727053 -542.069924 
L 630.708403 -537.593709 
L 630.669288 -533.117495 
L 630.612344 -528.641281 
L 630.540891 -524.165067 
L 630.458884 -519.688853 
L 630.370829 -515.212639 
L 630.281708 -510.736425 
L 630.196869 -506.260211 
L 630.121927 -501.783997 
L 630.06265 -497.307783 
L 630.024843 -492.831568 
L 630.01424 -488.355354 
L 630.036391 -483.87914 
L 630.09656 -479.402926 
L 630.199632 -474.926712 
L 630.350024 -470.450498 
L 630.551611 -465.974284 
L 630.807665 -461.49807 
L 631.120803 -457.021856 
L 631.492959 -452.545641 
L 631.925364 -448.069427 
L 632.418549 -443.593213 
L 632.972363 -439.116999 
L 633.586011 -434.640785 
L 634.258109 -430.164571 
L 634.986759 -425.688357 
L 635.76963 -421.212143 
L 636.604065 -416.735929 
L 637.487178 -412.259715 
L 638.415966 -407.7835 
L 639.38741 -403.307286 
L 640.398573 -398.831072 
L 641.446671 -394.354858 
L 642.529137 -389.878644 
L 643.643642 -385.40243 
L 644.788097 -380.926216 
L 645.96062 -376.450002 
L 647.159464 -371.973788 
L 648.382923 -367.497573 
L 649.629209 -363.021359 
L 650.896311 -358.545145 
L 652.18184 -354.068931 
L 653.482884 -349.592717 
L 654.795866 -345.116503 
L 656.11643 -340.640289 
L 657.43936 -336.164075 
L 658.758543 -331.687861 
L 660.066986 -327.211647 
L 661.356888 -322.735432 
L 662.619772 -318.259218 
L 663.846673 -313.783004 
L 665.028379 -309.30679 
L 666.155722 -304.830576 
L 667.219889 -300.354362 
L 668.212764 -295.878148 
L 669.127263 -291.401934 
L 669.95766 -286.92572 
L 670.699877 -282.449505 
L 671.351721 -277.973291 
L 671.913064 -273.497077 
L 672.385942 -269.020863 
L 672.77456 -264.544649 
L 673.085216 -260.068435 
L 673.326124 -255.592221 
L 673.507143 -251.116007 
L 673.639429 -246.639793 
L 673.735012 -242.163578 
L 673.806316 -237.687364 
L 673.86564 -233.21115 
L 673.924631 -228.734936 
L 673.993748 -224.258722 
L 674.081775 -219.782508 
L 674.195365 -215.306294 
L 674.338676 -210.83008 
L 674.51308 -206.353866 
L 674.716993 -201.877652 
L 674.945805 -197.401437 
L 675.19194 -192.925223 
L 675.445036 -188.449009 
L 675.692228 -183.972795 
L 675.918556 -179.496581 
L 676.10744 -175.020367 
L 676.241248 -170.544153 
L 676.301895 -166.067939 
L 676.271486 -161.591725 
L 676.132941 -157.11551 
L 675.870619 -152.639296 
L 675.470874 -148.163082 
L 674.922563 -143.686868 
L 674.21745 -139.210654 
L 673.350528 -134.73444 
L 672.320218 -130.258226 
L 671.128455 -125.782012 
L 669.780662 -121.305798 
L 668.285605 -116.829584 
L 666.655147 -112.353369 
L 664.903907 -107.877155 
L 663.048842 -103.400941 
z
" style="stroke: #d62728; stroke-opacity: 0.3"/>
    </defs>
    <g clip-path="url(#p5a10a83a79)">
     <use xlink:href="#mf8ece707a0" x="0" y="648" style="fill: #d62728; fill-opacity: 0.3; stroke: #d62728; stroke-opacity: 0.3"/>
    </g>
   </g>
   <g id="PolyCollection_4">
    <defs>
     <path id="m810cca0094" d="M 866.430353 -97.81698 
L 782.630627 -97.81698 
L 780.818456 -98.506019 
L 779.225938 -99.195058 
L 777.875069 -99.884097 
L 776.782508 -100.573137 
L 775.959089 -101.262176 
L 775.409573 -101.951215 
L 775.132614 -102.640254 
L 775.120959 -103.329293 
L 775.361861 -104.018333 
L 775.837675 -104.707372 
L 776.526603 -105.396411 
L 777.403562 -106.08545 
L 778.441113 -106.774489 
L 779.610422 -107.463529 
L 780.882209 -108.152568 
L 782.227641 -108.841607 
L 783.619146 -109.530646 
L 785.031122 -110.219685 
L 786.440514 -110.908725 
L 787.82727 -111.597764 
L 789.174642 -112.286803 
L 790.469375 -112.975842 
L 791.701749 -113.664881 
L 792.865523 -114.353921 
L 793.957773 -115.04296 
L 794.978642 -115.731999 
L 795.931028 -116.421038 
L 796.820215 -117.110077 
L 797.653463 -117.799117 
L 798.439574 -118.488156 
L 799.188443 -119.177195 
L 799.910605 -119.866234 
L 800.616793 -120.555273 
L 801.31751 -121.244313 
L 802.022633 -121.933352 
L 802.741048 -122.622391 
L 803.480344 -123.31143 
L 804.246547 -124.000469 
L 805.043936 -124.689509 
L 805.874913 -125.378548 
L 806.739957 -126.067587 
L 807.637653 -126.756626 
L 808.564787 -127.445665 
L 809.516519 -128.134705 
L 810.486613 -128.823744 
L 811.467711 -129.512783 
L 812.451655 -130.201822 
L 813.429813 -130.890861 
L 814.393427 -131.579901 
L 815.333932 -132.26894 
L 816.243261 -132.957979 
L 817.114107 -133.647018 
L 817.940137 -134.336057 
L 818.716143 -135.025097 
L 819.438148 -135.714136 
L 820.103442 -136.403175 
L 820.710564 -137.092214 
L 821.259242 -137.781253 
L 821.750282 -138.470293 
L 822.185432 -139.159332 
L 822.567217 -139.848371 
L 822.898774 -140.53741 
L 823.183669 -141.226449 
L 823.42573 -141.915489 
L 823.62889 -142.604528 
L 823.797042 -143.293567 
L 823.933926 -143.982606 
L 824.043023 -144.671645 
L 824.127491 -145.360685 
L 824.190108 -146.049724 
L 824.233245 -146.738763 
L 824.258865 -147.427802 
L 824.268524 -148.116841 
L 824.263407 -148.805881 
L 824.244364 -149.49492 
L 824.211963 -150.183959 
L 824.166556 -150.872998 
L 824.108347 -151.562037 
L 824.037463 -152.251077 
L 823.954037 -152.940116 
L 823.85828 -153.629155 
L 823.750557 -154.318194 
L 823.631455 -155.007233 
L 823.501835 -155.696273 
L 823.362886 -156.385312 
L 823.216144 -157.074351 
L 823.063512 -157.76339 
L 822.907243 -158.452429 
L 822.749912 -159.141469 
L 822.594367 -159.830508 
L 822.443649 -160.519547 
L 822.30091 -161.208586 
L 822.169306 -161.897625 
L 822.051886 -162.586665 
L 821.951477 -163.275704 
L 821.870574 -163.964743 
L 821.811235 -164.653782 
L 821.774998 -165.342821 
L 821.762814 -166.031861 
L 827.298167 -166.031861 
L 827.298167 -166.031861 
L 827.285982 -165.342821 
L 827.249746 -164.653782 
L 827.190407 -163.964743 
L 827.109504 -163.275704 
L 827.009095 -162.586665 
L 826.891675 -161.897625 
L 826.760071 -161.208586 
L 826.617332 -160.519547 
L 826.466614 -159.830508 
L 826.311068 -159.141469 
L 826.153738 -158.452429 
L 825.997469 -157.76339 
L 825.844837 -157.074351 
L 825.698095 -156.385312 
L 825.559145 -155.696273 
L 825.429526 -155.007233 
L 825.310423 -154.318194 
L 825.202701 -153.629155 
L 825.106944 -152.940116 
L 825.023518 -152.251077 
L 824.952634 -151.562037 
L 824.894425 -150.872998 
L 824.849018 -150.183959 
L 824.816617 -149.49492 
L 824.797573 -148.805881 
L 824.792456 -148.116841 
L 824.802116 -147.427802 
L 824.827735 -146.738763 
L 824.870873 -146.049724 
L 824.93349 -145.360685 
L 825.017957 -144.671645 
L 825.127055 -143.982606 
L 825.263938 -143.293567 
L 825.432091 -142.604528 
L 825.635251 -141.915489 
L 825.877312 -141.226449 
L 826.162207 -140.53741 
L 826.493764 -139.848371 
L 826.875549 -139.159332 
L 827.310698 -138.470293 
L 827.801738 -137.781253 
L 828.350416 -137.092214 
L 828.957539 -136.403175 
L 829.622832 -135.714136 
L 830.344838 -135.025097 
L 831.120844 -134.336057 
L 831.946873 -133.647018 
L 832.81772 -132.957979 
L 833.727049 -132.26894 
L 834.667554 -131.579901 
L 835.631167 -130.890861 
L 836.609326 -130.201822 
L 837.593269 -129.512783 
L 838.574368 -128.823744 
L 839.544461 -128.134705 
L 840.496194 -127.445665 
L 841.423328 -126.756626 
L 842.321023 -126.067587 
L 843.186068 -125.378548 
L 844.017045 -124.689509 
L 844.814434 -124.000469 
L 845.580637 -123.31143 
L 846.319932 -122.622391 
L 847.038348 -121.933352 
L 847.743471 -121.244313 
L 848.444188 -120.555273 
L 849.150376 -119.866234 
L 849.872538 -119.177195 
L 850.621406 -118.488156 
L 851.407517 -117.799117 
L 852.240765 -117.110077 
L 853.129953 -116.421038 
L 854.082339 -115.731999 
L 855.103208 -115.04296 
L 856.195457 -114.353921 
L 857.359232 -113.664881 
L 858.591606 -112.975842 
L 859.886338 -112.286803 
L 861.233711 -111.597764 
L 862.620466 -110.908725 
L 864.029859 -110.219685 
L 865.441835 -109.530646 
L 866.83334 -108.841607 
L 868.178772 -108.152568 
L 869.450558 -107.463529 
L 870.619868 -106.774489 
L 871.657419 -106.08545 
L 872.534378 -105.396411 
L 873.223306 -104.707372 
L 873.69912 -104.018333 
L 873.940022 -103.329293 
L 873.928367 -102.640254 
L 873.651407 -101.951215 
L 873.101891 -101.262176 
L 872.278473 -100.573137 
L 871.185911 -99.884097 
L 869.835043 -99.195058 
L 868.242524 -98.506019 
L 866.430353 -97.81698 
z
" style="stroke: #9467bd; stroke-opacity: 0.3"/>
    </defs>
    <g clip-path="url(#p5a10a83a79)">
     <use xlink:href="#m810cca0094" x="0" y="648" style="fill: #9467bd; fill-opacity: 0.3; stroke: #9467bd; stroke-opacity: 0.3"/>
    </g>
   </g>
   <g id="PolyCollection_5">
    <defs>
     <path id="m2f109e184b" d="M 1035.960236 -118.039975 
L 1008.376998 -118.039975 
L 1007.465756 -121.142176 
L 1006.528839 -124.244377 
L 1005.56896 -127.346578 
L 1004.589272 -130.448779 
L 1003.59338 -133.55098 
L 1002.585345 -136.65318 
L 1001.569677 -139.755381 
L 1000.551309 -142.857582 
L 999.535572 -145.959783 
L 998.528137 -149.061984 
L 997.534965 -152.164185 
L 996.562218 -155.266385 
L 995.616179 -158.368586 
L 994.70314 -161.470787 
L 993.829296 -164.572988 
L 993.000614 -167.675189 
L 992.222706 -170.77739 
L 991.500701 -173.87959 
L 990.839106 -176.981791 
L 990.241685 -180.083992 
L 989.711336 -183.186193 
L 989.249989 -186.288394 
L 988.858511 -189.390594 
L 988.536641 -192.492795 
L 988.282942 -195.594996 
L 988.094774 -198.697197 
L 987.96831 -201.799398 
L 987.898559 -204.901599 
L 987.87944 -208.003799 
L 987.903866 -211.106 
L 987.963866 -214.208201 
L 988.05073 -217.310402 
L 988.155173 -220.412603 
L 988.267516 -223.514804 
L 988.377889 -226.617004 
L 988.476434 -229.719205 
L 988.553515 -232.821406 
L 988.599929 -235.923607 
L 988.607107 -239.025808 
L 988.567305 -242.128009 
L 988.473777 -245.230209 
L 988.320927 -248.33241 
L 988.104434 -251.434611 
L 987.821352 -254.536812 
L 987.470176 -257.639013 
L 987.050872 -260.741214 
L 986.56488 -263.843414 
L 986.015076 -266.945615 
L 985.405706 -270.047816 
L 984.742289 -273.150017 
L 984.031484 -276.252218 
L 983.280944 -279.354419 
L 982.49914 -282.456619 
L 981.695172 -285.55882 
L 980.87857 -288.661021 
L 980.059091 -291.763222 
L 979.246511 -294.865423 
L 978.450429 -297.967624 
L 977.680079 -301.069824 
L 976.944158 -304.172025 
L 976.250678 -307.274226 
L 975.606842 -310.376427 
L 975.01894 -313.478628 
L 974.49229 -316.580829 
L 974.031194 -319.683029 
L 973.638936 -322.78523 
L 973.317806 -325.887431 
L 973.069149 -328.989632 
L 972.893445 -332.091833 
L 972.790405 -335.194034 
L 972.759085 -338.296234 
L 972.798014 -341.398435 
L 972.905323 -344.500636 
L 973.07888 -347.602837 
L 973.316419 -350.705038 
L 973.615653 -353.807239 
L 973.974385 -356.909439 
L 974.390591 -360.01164 
L 974.862481 -363.113841 
L 975.388551 -366.216042 
L 975.967592 -369.318243 
L 976.598688 -372.420444 
L 977.281192 -375.522644 
L 978.01467 -378.624845 
L 978.798841 -381.727046 
L 979.633494 -384.829247 
L 980.5184 -387.931448 
L 981.453216 -391.033648 
L 982.437389 -394.135849 
L 983.470066 -397.23805 
L 984.550008 -400.340251 
L 985.675518 -403.442452 
L 986.844387 -406.544653 
L 988.053854 -409.646853 
L 989.300582 -412.749054 
L 990.580666 -415.851255 
L 991.889646 -418.953456 
L 993.22255 -422.055657 
L 994.573954 -425.157858 
L 1049.76328 -425.157858 
L 1049.76328 -425.157858 
L 1051.114684 -422.055657 
L 1052.447588 -418.953456 
L 1053.756568 -415.851255 
L 1055.036652 -412.749054 
L 1056.28338 -409.646853 
L 1057.492847 -406.544653 
L 1058.661716 -403.442452 
L 1059.787226 -400.340251 
L 1060.867168 -397.23805 
L 1061.899845 -394.135849 
L 1062.884018 -391.033648 
L 1063.818834 -387.931448 
L 1064.703741 -384.829247 
L 1065.538394 -381.727046 
L 1066.322564 -378.624845 
L 1067.056042 -375.522644 
L 1067.738546 -372.420444 
L 1068.369642 -369.318243 
L 1068.948683 -366.216042 
L 1069.474753 -363.113841 
L 1069.946644 -360.01164 
L 1070.362849 -356.909439 
L 1070.721581 -353.807239 
L 1071.020816 -350.705038 
L 1071.258354 -347.602837 
L 1071.431911 -344.500636 
L 1071.53922 -341.398435 
L 1071.578149 -338.296234 
L 1071.546829 -335.194034 
L 1071.443789 -332.091833 
L 1071.268085 -328.989632 
L 1071.019428 -325.887431 
L 1070.698298 -322.78523 
L 1070.306041 -319.683029 
L 1069.844945 -316.580829 
L 1069.318294 -313.478628 
L 1068.730393 -310.376427 
L 1068.086556 -307.274226 
L 1067.393077 -304.172025 
L 1066.657156 -301.069824 
L 1065.886805 -297.967624 
L 1065.090723 -294.865423 
L 1064.278143 -291.763222 
L 1063.458664 -288.661021 
L 1062.642062 -285.55882 
L 1061.838094 -282.456619 
L 1061.05629 -279.354419 
L 1060.30575 -276.252218 
L 1059.594945 -273.150017 
L 1058.931528 -270.047816 
L 1058.322159 -266.945615 
L 1057.772354 -263.843414 
L 1057.286362 -260.741214 
L 1056.867058 -257.639013 
L 1056.515882 -254.536812 
L 1056.2328 -251.434611 
L 1056.016307 -248.33241 
L 1055.863457 -245.230209 
L 1055.769929 -242.128009 
L 1055.730127 -239.025808 
L 1055.737305 -235.923607 
L 1055.783719 -232.821406 
L 1055.8608 -229.719205 
L 1055.959345 -226.617004 
L 1056.069718 -223.514804 
L 1056.182061 -220.412603 
L 1056.286504 -217.310402 
L 1056.373368 -214.208201 
L 1056.433368 -211.106 
L 1056.457794 -208.003799 
L 1056.438675 -204.901599 
L 1056.368924 -201.799398 
L 1056.24246 -198.697197 
L 1056.054293 -195.594996 
L 1055.800593 -192.492795 
L 1055.478723 -189.390594 
L 1055.087245 -186.288394 
L 1054.625898 -183.186193 
L 1054.095549 -180.083992 
L 1053.498128 -176.981791 
L 1052.836533 -173.87959 
L 1052.114528 -170.77739 
L 1051.33662 -167.675189 
L 1050.507938 -164.572988 
L 1049.634094 -161.470787 
L 1048.721056 -158.368586 
L 1047.775016 -155.266385 
L 1046.802269 -152.164185 
L 1045.809097 -149.061984 
L 1044.801663 -145.959783 
L 1043.785925 -142.857582 
L 1042.767557 -139.755381 
L 1041.751889 -136.65318 
L 1040.743854 -133.55098 
L 1039.747962 -130.448779 
L 1038.768274 -127.346578 
L 1037.808395 -124.244377 
L 1036.871478 -121.142176 
L 1035.960236 -118.039975 
z
" style="stroke: #8c564b; stroke-opacity: 0.3"/>
    </defs>
    <g clip-path="url(#p5a10a83a79)">
     <use xlink:href="#m2f109e184b" x="0" y="648" style="fill: #8c564b; fill-opacity: 0.3; stroke: #8c564b; stroke-opacity: 0.3"/>
    </g>
   </g>
   <g id="matplotlib.axis_1">
    <g id="xtick_1">
     <g id="line2d_1">
      <defs>
       <path id="m40ac03fd8f" d="M 0 0 
L 0 3.5 
" style="stroke: #000000; stroke-width: 0.8"/>
      </defs>
      <g>
       <use xlink:href="#m40ac03fd8f" x="231.61611" y="575.336" style="stroke: #000000; stroke-width: 0.8"/>
      </g>
     </g>
     <g id="text_1">
      <!-- ANN-2 -->
      <g transform="translate(180.77861 606.651) scale(0.32 -0.32)">
       <defs>
        <path id="DejaVuSans-41" d="M 2188 4044 
L 1331 1722 
L 3047 1722 
L 2188 4044 
z
M 1831 4666 
L 2547 4666 
L 4325 0 
L 3669 0 
L 3244 1197 
L 1141 1197 
L 716 0 
L 50 0 
L 1831 4666 
z
" transform="scale(0.015625)"/>
        <path id="DejaVuSans-4e" d="M 628 4666 
L 1478 4666 
L 3547 763 
L 3547 4666 
L 4159 4666 
L 4159 0 
L 3309 0 
L 1241 3903 
L 1241 0 
L 628 0 
L 628 4666 
z
" transform="scale(0.015625)"/>
        <path id="DejaVuSans-2d" d="M 313 2009 
L 1997 2009 
L 1997 1497 
L 313 1497 
L 313 2009 
z
" transform="scale(0.015625)"/>
        <path id="DejaVuSans-32" d="M 1228 531 
L 3431 531 
L 3431 0 
L 469 0 
L 469 531 
Q 828 903 1448 1529 
Q 2069 2156 2228 2338 
Q 2531 2678 2651 2914 
Q 2772 3150 2772 3378 
Q 2772 3750 2511 3984 
Q 2250 4219 1831 4219 
Q 1534 4219 1204 4116 
Q 875 4013 500 3803 
L 500 4441 
Q 881 4594 1212 4672 
Q 1544 4750 1819 4750 
Q 2544 4750 2975 4387 
Q 3406 4025 3406 3419 
Q 3406 3131 3298 2873 
Q 3191 2616 2906 2266 
Q 2828 2175 2409 1742 
Q 1991 1309 1228 531 
z
" transform="scale(0.015625)"/>
       </defs>
       <use xlink:href="#DejaVuSans-41"/>
       <use xlink:href="#DejaVuSans-4e" x="68.408203"/>
       <use xlink:href="#DejaVuSans-4e" x="143.212891"/>
       <use xlink:href="#DejaVuSans-2d" x="218.017578"/>
       <use xlink:href="#DejaVuSans-32" x="254.101562"/>
      </g>
     </g>
    </g>
    <g id="xtick_2">
     <g id="line2d_2">
      <g>
       <use xlink:href="#m40ac03fd8f" x="429.254237" y="575.336" style="stroke: #000000; stroke-width: 0.8"/>
      </g>
     </g>
     <g id="text_2">
      <!-- ANN-3 -->
      <g transform="translate(378.416737 606.651) scale(0.32 -0.32)">
       <defs>
        <path id="DejaVuSans-33" d="M 2597 2516 
Q 3050 2419 3304 2112 
Q 3559 1806 3559 1356 
Q 3559 666 3084 287 
Q 2609 -91 1734 -91 
Q 1441 -91 1130 -33 
Q 819 25 488 141 
L 488 750 
Q 750 597 1062 519 
Q 1375 441 1716 441 
Q 2309 441 2620 675 
Q 2931 909 2931 1356 
Q 2931 1769 2642 2001 
Q 2353 2234 1838 2234 
L 1294 2234 
L 1294 2753 
L 1863 2753 
Q 2328 2753 2575 2939 
Q 2822 3125 2822 3475 
Q 2822 3834 2567 4026 
Q 2313 4219 1838 4219 
Q 1578 4219 1281 4162 
Q 984 4106 628 3988 
L 628 4550 
Q 988 4650 1302 4700 
Q 1616 4750 1894 4750 
Q 2613 4750 3031 4423 
Q 3450 4097 3450 3541 
Q 3450 3153 3228 2886 
Q 3006 2619 2597 2516 
z
" transform="scale(0.015625)"/>
       </defs>
       <use xlink:href="#DejaVuSans-41"/>
       <use xlink:href="#DejaVuSans-4e" x="68.408203"/>
       <use xlink:href="#DejaVuSans-4e" x="143.212891"/>
       <use xlink:href="#DejaVuSans-2d" x="218.017578"/>
       <use xlink:href="#DejaVuSans-33" x="254.101562"/>
      </g>
     </g>
    </g>
    <g id="xtick_3">
     <g id="line2d_3">
      <g>
       <use xlink:href="#m40ac03fd8f" x="626.892364" y="575.336" style="stroke: #000000; stroke-width: 0.8"/>
      </g>
     </g>
     <g id="text_3">
      <!-- EN/RR/PLS -->
      <g transform="translate(543.077364 606.651) scale(0.32 -0.32)">
       <defs>
        <path id="DejaVuSans-45" d="M 628 4666 
L 3578 4666 
L 3578 4134 
L 1259 4134 
L 1259 2753 
L 3481 2753 
L 3481 2222 
L 1259 2222 
L 1259 531 
L 3634 531 
L 3634 0 
L 628 0 
L 628 4666 
z
" transform="scale(0.015625)"/>
        <path id="DejaVuSans-2f" d="M 1625 4666 
L 2156 4666 
L 531 -594 
L 0 -594 
L 1625 4666 
z
" transform="scale(0.015625)"/>
        <path id="DejaVuSans-52" d="M 2841 2188 
Q 3044 2119 3236 1894 
Q 3428 1669 3622 1275 
L 4263 0 
L 3584 0 
L 2988 1197 
Q 2756 1666 2539 1819 
Q 2322 1972 1947 1972 
L 1259 1972 
L 1259 0 
L 628 0 
L 628 4666 
L 2053 4666 
Q 2853 4666 3247 4331 
Q 3641 3997 3641 3322 
Q 3641 2881 3436 2590 
Q 3231 2300 2841 2188 
z
M 1259 4147 
L 1259 2491 
L 2053 2491 
Q 2509 2491 2742 2702 
Q 2975 2913 2975 3322 
Q 2975 3731 2742 3939 
Q 2509 4147 2053 4147 
L 1259 4147 
z
" transform="scale(0.015625)"/>
        <path id="DejaVuSans-50" d="M 1259 4147 
L 1259 2394 
L 2053 2394 
Q 2494 2394 2734 2622 
Q 2975 2850 2975 3272 
Q 2975 3691 2734 3919 
Q 2494 4147 2053 4147 
L 1259 4147 
z
M 628 4666 
L 2053 4666 
Q 2838 4666 3239 4311 
Q 3641 3956 3641 3272 
Q 3641 2581 3239 2228 
Q 2838 1875 2053 1875 
L 1259 1875 
L 1259 0 
L 628 0 
L 628 4666 
z
" transform="scale(0.015625)"/>
        <path id="DejaVuSans-4c" d="M 628 4666 
L 1259 4666 
L 1259 531 
L 3531 531 
L 3531 0 
L 628 0 
L 628 4666 
z
" transform="scale(0.015625)"/>
        <path id="DejaVuSans-53" d="M 3425 4513 
L 3425 3897 
Q 3066 4069 2747 4153 
Q 2428 4238 2131 4238 
Q 1616 4238 1336 4038 
Q 1056 3838 1056 3469 
Q 1056 3159 1242 3001 
Q 1428 2844 1947 2747 
L 2328 2669 
Q 3034 2534 3370 2195 
Q 3706 1856 3706 1288 
Q 3706 609 3251 259 
Q 2797 -91 1919 -91 
Q 1588 -91 1214 -16 
Q 841 59 441 206 
L 441 856 
Q 825 641 1194 531 
Q 1563 422 1919 422 
Q 2459 422 2753 634 
Q 3047 847 3047 1241 
Q 3047 1584 2836 1778 
Q 2625 1972 2144 2069 
L 1759 2144 
Q 1053 2284 737 2584 
Q 422 2884 422 3419 
Q 422 4038 858 4394 
Q 1294 4750 2059 4750 
Q 2388 4750 2728 4690 
Q 3069 4631 3425 4513 
z
" transform="scale(0.015625)"/>
       </defs>
       <use xlink:href="#DejaVuSans-45"/>
       <use xlink:href="#DejaVuSans-4e" x="63.183594"/>
       <use xlink:href="#DejaVuSans-2f" x="137.988281"/>
       <use xlink:href="#DejaVuSans-52" x="171.679688"/>
       <use xlink:href="#DejaVuSans-52" x="241.162109"/>
       <use xlink:href="#DejaVuSans-2f" x="310.644531"/>
       <use xlink:href="#DejaVuSans-50" x="344.335938"/>
       <use xlink:href="#DejaVuSans-4c" x="404.638672"/>
       <use xlink:href="#DejaVuSans-53" x="460.351562"/>
      </g>
     </g>
    </g>
    <g id="xtick_4">
     <g id="line2d_4">
      <g>
       <use xlink:href="#m40ac03fd8f" x="824.53049" y="575.336" style="stroke: #000000; stroke-width: 0.8"/>
      </g>
     </g>
     <g id="text_4">
      <!-- Our ANN -->
      <g transform="translate(755.24799 606.651) scale(0.32 -0.32)">
       <defs>
        <path id="DejaVuSans-4f" d="M 2522 4238 
Q 1834 4238 1429 3725 
Q 1025 3213 1025 2328 
Q 1025 1447 1429 934 
Q 1834 422 2522 422 
Q 3209 422 3611 934 
Q 4013 1447 4013 2328 
Q 4013 3213 3611 3725 
Q 3209 4238 2522 4238 
z
M 2522 4750 
Q 3503 4750 4090 4092 
Q 4678 3434 4678 2328 
Q 4678 1225 4090 567 
Q 3503 -91 2522 -91 
Q 1538 -91 948 565 
Q 359 1222 359 2328 
Q 359 3434 948 4092 
Q 1538 4750 2522 4750 
z
" transform="scale(0.015625)"/>
        <path id="DejaVuSans-75" d="M 544 1381 
L 544 3500 
L 1119 3500 
L 1119 1403 
Q 1119 906 1312 657 
Q 1506 409 1894 409 
Q 2359 409 2629 706 
Q 2900 1003 2900 1516 
L 2900 3500 
L 3475 3500 
L 3475 0 
L 2900 0 
L 2900 538 
Q 2691 219 2414 64 
Q 2138 -91 1772 -91 
Q 1169 -91 856 284 
Q 544 659 544 1381 
z
M 1991 3584 
L 1991 3584 
z
" transform="scale(0.015625)"/>
        <path id="DejaVuSans-72" d="M 2631 2963 
Q 2534 3019 2420 3045 
Q 2306 3072 2169 3072 
Q 1681 3072 1420 2755 
Q 1159 2438 1159 1844 
L 1159 0 
L 581 0 
L 581 3500 
L 1159 3500 
L 1159 2956 
Q 1341 3275 1631 3429 
Q 1922 3584 2338 3584 
Q 2397 3584 2469 3576 
Q 2541 3569 2628 3553 
L 2631 2963 
z
" transform="scale(0.015625)"/>
        <path id="DejaVuSans-20" transform="scale(0.015625)"/>
       </defs>
       <use xlink:href="#DejaVuSans-4f"/>
       <use xlink:href="#DejaVuSans-75" x="78.710938"/>
       <use xlink:href="#DejaVuSans-72" x="142.089844"/>
       <use xlink:href="#DejaVuSans-20" x="183.203125"/>
       <use xlink:href="#DejaVuSans-41" x="214.990234"/>
       <use xlink:href="#DejaVuSans-4e" x="283.398438"/>
       <use xlink:href="#DejaVuSans-4e" x="358.203125"/>
      </g>
     </g>
    </g>
    <g id="xtick_5">
     <g id="line2d_5">
      <g>
       <use xlink:href="#m40ac03fd8f" x="1022.168617" y="575.336" style="stroke: #000000; stroke-width: 0.8"/>
      </g>
     </g>
     <g id="text_5">
      <!-- Train Mean -->
      <g transform="translate(935.108617 606.651) scale(0.32 -0.32)">
       <defs>
        <path id="DejaVuSans-54" d="M -19 4666 
L 3928 4666 
L 3928 4134 
L 2272 4134 
L 2272 0 
L 1638 0 
L 1638 4134 
L -19 4134 
L -19 4666 
z
" transform="scale(0.015625)"/>
        <path id="DejaVuSans-61" d="M 2194 1759 
Q 1497 1759 1228 1600 
Q 959 1441 959 1056 
Q 959 750 1161 570 
Q 1363 391 1709 391 
Q 2188 391 2477 730 
Q 2766 1069 2766 1631 
L 2766 1759 
L 2194 1759 
z
M 3341 1997 
L 3341 0 
L 2766 0 
L 2766 531 
Q 2569 213 2275 61 
Q 1981 -91 1556 -91 
Q 1019 -91 701 211 
Q 384 513 384 1019 
Q 384 1609 779 1909 
Q 1175 2209 1959 2209 
L 2766 2209 
L 2766 2266 
Q 2766 2663 2505 2880 
Q 2244 3097 1772 3097 
Q 1472 3097 1187 3025 
Q 903 2953 641 2809 
L 641 3341 
Q 956 3463 1253 3523 
Q 1550 3584 1831 3584 
Q 2591 3584 2966 3190 
Q 3341 2797 3341 1997 
z
" transform="scale(0.015625)"/>
        <path id="DejaVuSans-69" d="M 603 3500 
L 1178 3500 
L 1178 0 
L 603 0 
L 603 3500 
z
M 603 4863 
L 1178 4863 
L 1178 4134 
L 603 4134 
L 603 4863 
z
" transform="scale(0.015625)"/>
        <path id="DejaVuSans-6e" d="M 3513 2113 
L 3513 0 
L 2938 0 
L 2938 2094 
Q 2938 2591 2744 2837 
Q 2550 3084 2163 3084 
Q 1697 3084 1428 2787 
Q 1159 2491 1159 1978 
L 1159 0 
L 581 0 
L 581 3500 
L 1159 3500 
L 1159 2956 
Q 1366 3272 1645 3428 
Q 1925 3584 2291 3584 
Q 2894 3584 3203 3211 
Q 3513 2838 3513 2113 
z
" transform="scale(0.015625)"/>
        <path id="DejaVuSans-4d" d="M 628 4666 
L 1569 4666 
L 2759 1491 
L 3956 4666 
L 4897 4666 
L 4897 0 
L 4281 0 
L 4281 4097 
L 3078 897 
L 2444 897 
L 1241 4097 
L 1241 0 
L 628 0 
L 628 4666 
z
" transform="scale(0.015625)"/>
        <path id="DejaVuSans-65" d="M 3597 1894 
L 3597 1613 
L 953 1613 
Q 991 1019 1311 708 
Q 1631 397 2203 397 
Q 2534 397 2845 478 
Q 3156 559 3463 722 
L 3463 178 
Q 3153 47 2828 -22 
Q 2503 -91 2169 -91 
Q 1331 -91 842 396 
Q 353 884 353 1716 
Q 353 2575 817 3079 
Q 1281 3584 2069 3584 
Q 2775 3584 3186 3129 
Q 3597 2675 3597 1894 
z
M 3022 2063 
Q 3016 2534 2758 2815 
Q 2500 3097 2075 3097 
Q 1594 3097 1305 2825 
Q 1016 2553 972 2059 
L 3022 2063 
z
" transform="scale(0.015625)"/>
       </defs>
       <use xlink:href="#DejaVuSans-54"/>
       <use xlink:href="#DejaVuSans-72" x="46.333984"/>
       <use xlink:href="#DejaVuSans-61" x="87.447266"/>
       <use xlink:href="#DejaVuSans-69" x="148.726562"/>
       <use xlink:href="#DejaVuSans-6e" x="176.509766"/>
       <use xlink:href="#DejaVuSans-20" x="239.888672"/>
       <use xlink:href="#DejaVuSans-4d" x="271.675781"/>
       <use xlink:href="#DejaVuSans-65" x="357.955078"/>
       <use xlink:href="#DejaVuSans-61" x="419.478516"/>
       <use xlink:href="#DejaVuSans-6e" x="480.757812"/>
      </g>
     </g>
    </g>
   </g>
   <g id="matplotlib.axis_2">
    <g id="ytick_1">
     <g id="line2d_6">
      <defs>
       <path id="md9d8a2b543" d="M 0 0 
L -3.5 0 
" style="stroke: #000000; stroke-width: 0.8"/>
      </defs>
      <g>
       <use xlink:href="#md9d8a2b543" x="137.738" y="550.18302" style="stroke: #000000; stroke-width: 0.8"/>
      </g>
     </g>
     <g id="text_6">
      <!-- 0 -->
      <g transform="translate(110.378 562.34052) scale(0.32 -0.32)">
       <defs>
        <path id="DejaVuSans-30" d="M 2034 4250 
Q 1547 4250 1301 3770 
Q 1056 3291 1056 2328 
Q 1056 1369 1301 889 
Q 1547 409 2034 409 
Q 2525 409 2770 889 
Q 3016 1369 3016 2328 
Q 3016 3291 2770 3770 
Q 2525 4250 2034 4250 
z
M 2034 4750 
Q 2819 4750 3233 4129 
Q 3647 3509 3647 2328 
Q 3647 1150 3233 529 
Q 2819 -91 2034 -91 
Q 1250 -91 836 529 
Q 422 1150 422 2328 
Q 422 3509 836 4129 
Q 1250 4750 2034 4750 
z
" transform="scale(0.015625)"/>
       </defs>
       <use xlink:href="#DejaVuSans-30"/>
      </g>
     </g>
    </g>
    <g id="ytick_2">
     <g id="line2d_7">
      <g>
       <use xlink:href="#md9d8a2b543" x="137.738" y="449.571101" style="stroke: #000000; stroke-width: 0.8"/>
      </g>
     </g>
     <g id="text_7">
      <!-- 20 -->
      <g transform="translate(90.018 461.728601) scale(0.32 -0.32)">
       <use xlink:href="#DejaVuSans-32"/>
       <use xlink:href="#DejaVuSans-30" x="63.623047"/>
      </g>
     </g>
    </g>
    <g id="ytick_3">
     <g id="line2d_8">
      <g>
       <use xlink:href="#md9d8a2b543" x="137.738" y="348.959183" style="stroke: #000000; stroke-width: 0.8"/>
      </g>
     </g>
     <g id="text_8">
      <!-- 40 -->
      <g transform="translate(90.018 361.116683) scale(0.32 -0.32)">
       <defs>
        <path id="DejaVuSans-34" d="M 2419 4116 
L 825 1625 
L 2419 1625 
L 2419 4116 
z
M 2253 4666 
L 3047 4666 
L 3047 1625 
L 3713 1625 
L 3713 1100 
L 3047 1100 
L 3047 0 
L 2419 0 
L 2419 1100 
L 313 1100 
L 313 1709 
L 2253 4666 
z
" transform="scale(0.015625)"/>
       </defs>
       <use xlink:href="#DejaVuSans-34"/>
       <use xlink:href="#DejaVuSans-30" x="63.623047"/>
      </g>
     </g>
    </g>
    <g id="ytick_4">
     <g id="line2d_9">
      <g>
       <use xlink:href="#md9d8a2b543" x="137.738" y="248.347264" style="stroke: #000000; stroke-width: 0.8"/>
      </g>
     </g>
     <g id="text_9">
      <!-- 60 -->
      <g transform="translate(90.018 260.504764) scale(0.32 -0.32)">
       <defs>
        <path id="DejaVuSans-36" d="M 2113 2584 
Q 1688 2584 1439 2293 
Q 1191 2003 1191 1497 
Q 1191 994 1439 701 
Q 1688 409 2113 409 
Q 2538 409 2786 701 
Q 3034 994 3034 1497 
Q 3034 2003 2786 2293 
Q 2538 2584 2113 2584 
z
M 3366 4563 
L 3366 3988 
Q 3128 4100 2886 4159 
Q 2644 4219 2406 4219 
Q 1781 4219 1451 3797 
Q 1122 3375 1075 2522 
Q 1259 2794 1537 2939 
Q 1816 3084 2150 3084 
Q 2853 3084 3261 2657 
Q 3669 2231 3669 1497 
Q 3669 778 3244 343 
Q 2819 -91 2113 -91 
Q 1303 -91 875 529 
Q 447 1150 447 2328 
Q 447 3434 972 4092 
Q 1497 4750 2381 4750 
Q 2619 4750 2861 4703 
Q 3103 4656 3366 4563 
z
" transform="scale(0.015625)"/>
       </defs>
       <use xlink:href="#DejaVuSans-36"/>
       <use xlink:href="#DejaVuSans-30" x="63.623047"/>
      </g>
     </g>
    </g>
    <g id="ytick_5">
     <g id="line2d_10">
      <g>
       <use xlink:href="#md9d8a2b543" x="137.738" y="147.735345" style="stroke: #000000; stroke-width: 0.8"/>
      </g>
     </g>
     <g id="text_10">
      <!-- 80 -->
      <g transform="translate(90.018 159.892845) scale(0.32 -0.32)">
       <defs>
        <path id="DejaVuSans-38" d="M 2034 2216 
Q 1584 2216 1326 1975 
Q 1069 1734 1069 1313 
Q 1069 891 1326 650 
Q 1584 409 2034 409 
Q 2484 409 2743 651 
Q 3003 894 3003 1313 
Q 3003 1734 2745 1975 
Q 2488 2216 2034 2216 
z
M 1403 2484 
Q 997 2584 770 2862 
Q 544 3141 544 3541 
Q 544 4100 942 4425 
Q 1341 4750 2034 4750 
Q 2731 4750 3128 4425 
Q 3525 4100 3525 3541 
Q 3525 3141 3298 2862 
Q 3072 2584 2669 2484 
Q 3125 2378 3379 2068 
Q 3634 1759 3634 1313 
Q 3634 634 3220 271 
Q 2806 -91 2034 -91 
Q 1263 -91 848 271 
Q 434 634 434 1313 
Q 434 1759 690 2068 
Q 947 2378 1403 2484 
z
M 1172 3481 
Q 1172 3119 1398 2916 
Q 1625 2713 2034 2713 
Q 2441 2713 2670 2916 
Q 2900 3119 2900 3481 
Q 2900 3844 2670 4047 
Q 2441 4250 2034 4250 
Q 1625 4250 1398 4047 
Q 1172 3844 1172 3481 
z
" transform="scale(0.015625)"/>
       </defs>
       <use xlink:href="#DejaVuSans-38"/>
       <use xlink:href="#DejaVuSans-30" x="63.623047"/>
      </g>
     </g>
    </g>
    <g id="ytick_6">
     <g id="line2d_11">
      <g>
       <use xlink:href="#md9d8a2b543" x="137.738" y="47.123426" style="stroke: #000000; stroke-width: 0.8"/>
      </g>
     </g>
     <g id="text_11">
      <!-- 100 -->
      <g transform="translate(69.658 59.280926) scale(0.32 -0.32)">
       <defs>
        <path id="DejaVuSans-31" d="M 794 531 
L 1825 531 
L 1825 4091 
L 703 3866 
L 703 4441 
L 1819 4666 
L 2450 4666 
L 2450 531 
L 3481 531 
L 3481 0 
L 794 0 
L 794 531 
z
" transform="scale(0.015625)"/>
       </defs>
       <use xlink:href="#DejaVuSans-31"/>
       <use xlink:href="#DejaVuSans-30" x="63.623047"/>
       <use xlink:href="#DejaVuSans-30" x="127.246094"/>
      </g>
     </g>
    </g>
    <g id="text_12">
     <!-- Percent Relative Error -->
     <g transform="translate(59.003 482.586915) rotate(-90) scale(0.32 -0.32)">
      <defs>
       <path id="DejaVuSans-63" d="M 3122 3366 
L 3122 2828 
Q 2878 2963 2633 3030 
Q 2388 3097 2138 3097 
Q 1578 3097 1268 2742 
Q 959 2388 959 1747 
Q 959 1106 1268 751 
Q 1578 397 2138 397 
Q 2388 397 2633 464 
Q 2878 531 3122 666 
L 3122 134 
Q 2881 22 2623 -34 
Q 2366 -91 2075 -91 
Q 1284 -91 818 406 
Q 353 903 353 1747 
Q 353 2603 823 3093 
Q 1294 3584 2113 3584 
Q 2378 3584 2631 3529 
Q 2884 3475 3122 3366 
z
" transform="scale(0.015625)"/>
       <path id="DejaVuSans-74" d="M 1172 4494 
L 1172 3500 
L 2356 3500 
L 2356 3053 
L 1172 3053 
L 1172 1153 
Q 1172 725 1289 603 
Q 1406 481 1766 481 
L 2356 481 
L 2356 0 
L 1766 0 
Q 1100 0 847 248 
Q 594 497 594 1153 
L 594 3053 
L 172 3053 
L 172 3500 
L 594 3500 
L 594 4494 
L 1172 4494 
z
" transform="scale(0.015625)"/>
       <path id="DejaVuSans-6c" d="M 603 4863 
L 1178 4863 
L 1178 0 
L 603 0 
L 603 4863 
z
" transform="scale(0.015625)"/>
       <path id="DejaVuSans-76" d="M 191 3500 
L 800 3500 
L 1894 563 
L 2988 3500 
L 3597 3500 
L 2284 0 
L 1503 0 
L 191 3500 
z
" transform="scale(0.015625)"/>
       <path id="DejaVuSans-6f" d="M 1959 3097 
Q 1497 3097 1228 2736 
Q 959 2375 959 1747 
Q 959 1119 1226 758 
Q 1494 397 1959 397 
Q 2419 397 2687 759 
Q 2956 1122 2956 1747 
Q 2956 2369 2687 2733 
Q 2419 3097 1959 3097 
z
M 1959 3584 
Q 2709 3584 3137 3096 
Q 3566 2609 3566 1747 
Q 3566 888 3137 398 
Q 2709 -91 1959 -91 
Q 1206 -91 779 398 
Q 353 888 353 1747 
Q 353 2609 779 3096 
Q 1206 3584 1959 3584 
z
" transform="scale(0.015625)"/>
      </defs>
      <use xlink:href="#DejaVuSans-50"/>
      <use xlink:href="#DejaVuSans-65" x="56.677734"/>
      <use xlink:href="#DejaVuSans-72" x="118.201172"/>
      <use xlink:href="#DejaVuSans-63" x="157.064453"/>
      <use xlink:href="#DejaVuSans-65" x="212.044922"/>
      <use xlink:href="#DejaVuSans-6e" x="273.568359"/>
      <use xlink:href="#DejaVuSans-74" x="336.947266"/>
      <use xlink:href="#DejaVuSans-20" x="376.15625"/>
      <use xlink:href="#DejaVuSans-52" x="407.943359"/>
      <use xlink:href="#DejaVuSans-65" x="472.925781"/>
      <use xlink:href="#DejaVuSans-6c" x="534.449219"/>
      <use xlink:href="#DejaVuSans-61" x="562.232422"/>
      <use xlink:href="#DejaVuSans-74" x="623.511719"/>
      <use xlink:href="#DejaVuSans-69" x="662.720703"/>
      <use xlink:href="#DejaVuSans-76" x="690.503906"/>
      <use xlink:href="#DejaVuSans-65" x="749.683594"/>
      <use xlink:href="#DejaVuSans-20" x="811.207031"/>
      <use xlink:href="#DejaVuSans-45" x="842.994141"/>
      <use xlink:href="#DejaVuSans-72" x="906.177734"/>
      <use xlink:href="#DejaVuSans-72" x="945.541016"/>
      <use xlink:href="#DejaVuSans-6f" x="984.404297"/>
      <use xlink:href="#DejaVuSans-72" x="1045.585938"/>
     </g>
    </g>
   </g>
   <g id="LineCollection_1">
    <path d="M 206.911344 47.123426 
L 256.320876 47.123426 
" clip-path="url(#p5a10a83a79)" style="fill: none; stroke: #ff7f0e; stroke-width: 1.5"/>
   </g>
   <g id="LineCollection_2">
    <path d="M 206.911344 545.051812 
L 256.320876 545.051812 
" clip-path="url(#p5a10a83a79)" style="fill: none; stroke: #ff7f0e; stroke-width: 1.5"/>
   </g>
   <g id="LineCollection_3">
    <path d="M 231.61611 545.051812 
L 231.61611 47.123426 
" clip-path="url(#p5a10a83a79)" style="fill: none; stroke: #ff7f0e; stroke-width: 1.5"/>
   </g>
   <g id="LineCollection_4">
    <path d="M 206.911344 471.353582 
L 256.320876 471.353582 
" clip-path="url(#p5a10a83a79)" style="fill: none; stroke: #ff7f0e; stroke-width: 1.5"/>
   </g>
   <g id="LineCollection_5">
    <path d="M 404.549471 382.915705 
L 453.959003 382.915705 
" clip-path="url(#p5a10a83a79)" style="fill: none; stroke: #2ca02c; stroke-width: 1.5"/>
   </g>
   <g id="LineCollection_6">
    <path d="M 404.549471 542.184373 
L 453.959003 542.184373 
" clip-path="url(#p5a10a83a79)" style="fill: none; stroke: #2ca02c; stroke-width: 1.5"/>
   </g>
   <g id="LineCollection_7">
    <path d="M 429.254237 542.184373 
L 429.254237 382.915705 
" clip-path="url(#p5a10a83a79)" style="fill: none; stroke: #2ca02c; stroke-width: 1.5"/>
   </g>
   <g id="LineCollection_8">
    <path d="M 404.549471 480.635031 
L 453.959003 480.635031 
" clip-path="url(#p5a10a83a79)" style="fill: none; stroke: #2ca02c; stroke-width: 1.5"/>
   </g>
   <g id="LineCollection_9">
    <path d="M 602.187598 101.453862 
L 651.597129 101.453862 
" clip-path="url(#p5a10a83a79)" style="fill: none; stroke: #d62728; stroke-width: 1.5"/>
   </g>
   <g id="LineCollection_10">
    <path d="M 602.187598 544.599059 
L 651.597129 544.599059 
" clip-path="url(#p5a10a83a79)" style="fill: none; stroke: #d62728; stroke-width: 1.5"/>
   </g>
   <g id="LineCollection_11">
    <path d="M 626.892364 544.599059 
L 626.892364 101.453862 
" clip-path="url(#p5a10a83a79)" style="fill: none; stroke: #d62728; stroke-width: 1.5"/>
   </g>
   <g id="LineCollection_12">
    <path d="M 602.187598 418.532324 
L 651.597129 418.532324 
" clip-path="url(#p5a10a83a79)" style="fill: none; stroke: #d62728; stroke-width: 1.5"/>
   </g>
   <g id="LineCollection_13">
    <path d="M 799.825725 481.968139 
L 849.235256 481.968139 
" clip-path="url(#p5a10a83a79)" style="fill: none; stroke: #9467bd; stroke-width: 1.5"/>
   </g>
   <g id="LineCollection_14">
    <path d="M 799.825725 550.18302 
L 849.235256 550.18302 
" clip-path="url(#p5a10a83a79)" style="fill: none; stroke: #9467bd; stroke-width: 1.5"/>
   </g>
   <g id="LineCollection_15">
    <path d="M 824.53049 550.18302 
L 824.53049 481.968139 
" clip-path="url(#p5a10a83a79)" style="fill: none; stroke: #9467bd; stroke-width: 1.5"/>
   </g>
   <g id="LineCollection_16">
    <path d="M 799.825725 542.184373 
L 849.235256 542.184373 
" clip-path="url(#p5a10a83a79)" style="fill: none; stroke: #9467bd; stroke-width: 1.5"/>
   </g>
   <g id="LineCollection_17">
    <path d="M 997.463851 222.842142 
L 1046.873383 222.842142 
" clip-path="url(#p5a10a83a79)" style="fill: none; stroke: #8c564b; stroke-width: 1.5"/>
   </g>
   <g id="LineCollection_18">
    <path d="M 997.463851 529.960025 
L 1046.873383 529.960025 
" clip-path="url(#p5a10a83a79)" style="fill: none; stroke: #8c564b; stroke-width: 1.5"/>
   </g>
   <g id="LineCollection_19">
    <path d="M 1022.168617 529.960025 
L 1022.168617 222.842142 
" clip-path="url(#p5a10a83a79)" style="fill: none; stroke: #8c564b; stroke-width: 1.5"/>
   </g>
   <g id="LineCollection_20">
    <path d="M 997.463851 331.704239 
L 1046.873383 331.704239 
" clip-path="url(#p5a10a83a79)" style="fill: none; stroke: #8c564b; stroke-width: 1.5"/>
   </g>
   <g id="patch_3">
    <path d="M 137.738 575.336 
L 137.738 42.09283 
" style="fill: none; stroke: #000000; stroke-width: 0.8; stroke-linejoin: miter; stroke-linecap: square"/>
   </g>
   <g id="patch_4">
    <path d="M 1116.046727 575.336 
L 1116.046727 42.09283 
" style="fill: none; stroke: #000000; stroke-width: 0.8; stroke-linejoin: miter; stroke-linecap: square"/>
   </g>
   <g id="patch_5">
    <path d="M 137.738 575.336 
L 1116.046727 575.336 
" style="fill: none; stroke: #000000; stroke-width: 0.8; stroke-linejoin: miter; stroke-linecap: square"/>
   </g>
   <g id="patch_6">
    <path d="M 137.738 42.09283 
L 1116.046727 42.09283 
" style="fill: none; stroke: #000000; stroke-width: 0.8; stroke-linejoin: miter; stroke-linecap: square"/>
   </g>
  </g>
 </g>
 <defs>
  <clipPath id="p5a10a83a79">
   <rect x="137.738" y="42.09283" width="978.308727" height="533.24317"/>
  </clipPath>
 </defs>
</svg>
