<?xml version="1.0" encoding="utf-8" standalone="no"?>
<!DOCTYPE svg PUBLIC "-//W3C//DTD SVG 1.1//EN"
  "http://www.w3.org/Graphics/SVG/1.1/DTD/svg11.dtd">
<svg xmlns:xlink="http://www.w3.org/1999/xlink" width="1152pt" height="648pt" viewBox="0 0 1152 648" xmlns="http://www.w3.org/2000/svg" version="1.1">
 <metadata>
  <rdf:RDF xmlns:dc="http://purl.org/dc/elements/1.1/" xmlns:cc="http://creativecommons.org/ns#" xmlns:rdf="http://www.w3.org/1999/02/22-rdf-syntax-ns#">
   <cc:Work>
    <dc:type rdf:resource="http://purl.org/dc/dcmitype/StillImage"/>
    <dc:date>2023-11-29T16:42:41.641869</dc:date>
    <dc:format>image/svg+xml</dc:format>
    <dc:creator>
     <cc:Agent>
      <dc:title>Matplotlib v3.7.1, https://matplotlib.org/</dc:title>
     </cc:Agent>
    </dc:creator>
   </cc:Work>
  </rdf:RDF>
 </metadata>
 <defs>
  <style type="text/css">*{stroke-linejoin: round; stroke-linecap: butt}</style>
 </defs>
 <g id="figure_1">
  <g id="patch_1">
   <path d="M 0 648 
L 1152 648 
L 1152 0 
L 0 0 
z
" style="fill: #ffffff"/>
  </g>
  <g id="axes_1">
   <g id="patch_2">
    <path d="M 117.38 539.336 
L 1117.44 539.336 
L 1117.44 34.56 
L 117.38 34.56 
z
" style="fill: #ffffff"/>
   </g>
   <g id="PolyCollection_1">
    <path d="M 275.296703 510.681268 
L 180.255764 510.681268 
L 177.817651 506.103723 
L 175.515997 501.526179 
L 173.373085 496.948634 
L 171.408131 492.37109 
L 169.636726 487.793545 
L 168.070392 483.216001 
L 166.716255 478.638456 
L 165.57686 474.060912 
L 164.65013 469.483367 
L 163.929484 464.905823 
L 163.404099 460.328278 
L 163.059329 455.750734 
L 162.87724 451.17319 
L 162.837273 446.595645 
L 162.916982 442.018101 
L 163.092845 437.440556 
L 163.341096 432.863012 
L 163.638558 428.285467 
L 163.963444 423.707923 
L 164.296087 419.130378 
L 164.619583 414.552834 
L 164.92031 409.975289 
L 165.188313 405.397745 
L 165.417533 400.8202 
L 165.605886 396.242656 
L 165.755178 391.665111 
L 165.870871 387.087567 
L 165.961712 382.510022 
L 166.039243 377.932478 
L 166.117214 373.354933 
L 166.210928 368.777389 
L 166.336553 364.199844 
L 166.510417 359.6223 
L 166.74833 355.044755 
L 167.064955 350.467211 
L 167.473251 345.889666 
L 167.984012 341.312122 
L 168.605515 336.734577 
L 169.343289 332.157033 
L 170.200007 327.579488 
L 171.175502 323.001944 
L 172.266894 318.424399 
L 173.468821 313.846855 
L 174.773756 309.26931 
L 176.172391 304.691766 
L 177.654058 300.114221 
L 179.207175 295.536677 
L 180.819691 290.959132 
L 182.479499 286.381588 
L 184.174819 281.804043 
L 185.894506 277.226499 
L 187.628308 272.648955 
L 189.367035 268.07141 
L 191.102653 263.493866 
L 192.828306 258.916321 
L 194.538268 254.338777 
L 196.22784 249.761232 
L 197.893191 245.183688 
L 199.531186 240.606143 
L 201.139178 236.028599 
L 202.714819 231.451054 
L 204.255866 226.87351 
L 205.760024 222.295965 
L 207.224818 217.718421 
L 208.647503 213.140876 
L 210.025019 208.563332 
L 211.35399 203.985787 
L 212.63076 199.408243 
L 213.851466 194.830698 
L 215.012141 190.253154 
L 216.10884 185.675609 
L 217.137768 181.098065 
L 218.095432 176.52052 
L 218.978771 171.942976 
L 219.785288 167.365431 
L 220.513166 162.787887 
L 221.16136 158.210342 
L 221.72967 153.632798 
L 222.218795 149.055253 
L 222.630353 144.477709 
L 222.966883 139.900164 
L 223.231829 135.32262 
L 223.42949 130.745075 
L 223.564958 126.167531 
L 223.644038 121.589986 
L 223.673151 117.012442 
L 223.659215 112.434897 
L 223.609525 107.857353 
L 223.531617 103.279809 
L 223.433122 98.702264 
L 223.321618 94.12472 
L 223.204485 89.547175 
L 223.088756 84.969631 
L 222.980973 80.392086 
L 222.887063 75.814542 
L 222.812221 71.236997 
L 222.760812 66.659453 
L 222.7363 62.081908 
L 222.7412 57.504364 
L 232.811268 57.504364 
L 232.811268 57.504364 
L 232.816167 62.081908 
L 232.791656 66.659453 
L 232.740247 71.236997 
L 232.665405 75.814542 
L 232.571495 80.392086 
L 232.463712 84.969631 
L 232.347982 89.547175 
L 232.23085 94.12472 
L 232.119346 98.702264 
L 232.02085 103.279809 
L 231.942942 107.857353 
L 231.893253 112.434897 
L 231.879317 117.012442 
L 231.908429 121.589986 
L 231.98751 126.167531 
L 232.122978 130.745075 
L 232.320638 135.32262 
L 232.585584 139.900164 
L 232.922115 144.477709 
L 233.333672 149.055253 
L 233.822797 153.632798 
L 234.391108 158.210342 
L 235.039301 162.787887 
L 235.767179 167.365431 
L 236.573697 171.942976 
L 237.457035 176.52052 
L 238.414699 181.098065 
L 239.443628 185.675609 
L 240.540326 190.253154 
L 241.701002 194.830698 
L 242.921708 199.408243 
L 244.198477 203.985787 
L 245.527448 208.563332 
L 246.904964 213.140876 
L 248.327649 217.718421 
L 249.792443 222.295965 
L 251.296602 226.87351 
L 252.837648 231.451054 
L 254.413289 236.028599 
L 256.021282 240.606143 
L 257.659276 245.183688 
L 259.324628 249.761232 
L 261.014199 254.338777 
L 262.724162 258.916321 
L 264.449815 263.493866 
L 266.185432 268.07141 
L 267.924159 272.648955 
L 269.657962 277.226499 
L 271.377649 281.804043 
L 273.072968 286.381588 
L 274.732777 290.959132 
L 276.345292 295.536677 
L 277.89841 300.114221 
L 279.380076 304.691766 
L 280.778711 309.26931 
L 282.083647 313.846855 
L 283.285574 318.424399 
L 284.376965 323.001944 
L 285.35246 327.579488 
L 286.209179 332.157033 
L 286.946953 336.734577 
L 287.568456 341.312122 
L 288.079217 345.889666 
L 288.487513 350.467211 
L 288.804138 355.044755 
L 289.042051 359.6223 
L 289.215915 364.199844 
L 289.341539 368.777389 
L 289.435254 373.354933 
L 289.513224 377.932478 
L 289.590755 382.510022 
L 289.681597 387.087567 
L 289.79729 391.665111 
L 289.946582 396.242656 
L 290.134935 400.8202 
L 290.364155 405.397745 
L 290.632157 409.975289 
L 290.932885 414.552834 
L 291.256381 419.130378 
L 291.589024 423.707923 
L 291.913909 428.285467 
L 292.211371 432.863012 
L 292.459622 437.440556 
L 292.635485 442.018101 
L 292.715195 446.595645 
L 292.675227 451.17319 
L 292.493139 455.750734 
L 292.148368 460.328278 
L 291.622984 464.905823 
L 290.902337 469.483367 
L 289.975608 474.060912 
L 288.836212 478.638456 
L 287.482076 483.216001 
L 285.915741 487.793545 
L 284.144336 492.37109 
L 282.179382 496.948634 
L 280.036471 501.526179 
L 277.734816 506.103723 
L 275.296703 510.681268 
z
" clip-path="url(#pe0def26f01)" style="fill: #1f77b4; fill-opacity: 0.3"/>
   </g>
   <g id="PolyCollection_2">
    <path d="M 537.822961 500.803874 
L 437.241195 500.803874 
L 434.89047 496.326101 
L 432.695066 491.848328 
L 430.677615 487.370555 
L 428.858038 482.892782 
L 427.25308 478.415009 
L 425.875936 473.937237 
L 424.735958 469.459464 
L 423.838477 464.981691 
L 423.184725 460.503918 
L 422.771864 456.026145 
L 422.593117 451.548373 
L 422.637993 447.0706 
L 422.892601 442.592827 
L 423.340027 438.115054 
L 423.960777 433.637281 
L 424.733259 429.159508 
L 425.634288 424.681736 
L 426.639613 420.203963 
L 427.724437 415.72619 
L 428.863929 411.248417 
L 430.033711 406.770644 
L 431.210317 402.292871 
L 432.37162 397.815099 
L 433.497207 393.337326 
L 434.568724 388.859553 
L 435.570162 384.38178 
L 436.488104 379.904007 
L 437.311916 375.426234 
L 438.033889 370.948462 
L 438.649331 366.470689 
L 439.156603 361.992916 
L 439.557101 357.515143 
L 439.855183 353.03737 
L 440.05804 348.559597 
L 440.175511 344.081825 
L 440.219844 339.604052 
L 440.205406 335.126279 
L 440.14834 330.648506 
L 440.066187 326.170733 
L 439.977463 321.69296 
L 439.901224 317.215188 
L 439.856597 312.737415 
L 439.862322 308.259642 
L 439.93629 303.781869 
L 440.095112 299.304096 
L 440.353707 294.826324 
L 440.724947 290.348551 
L 441.219347 285.870778 
L 441.844824 281.393005 
L 442.60652 276.915232 
L 443.506707 272.437459 
L 444.544759 267.959687 
L 445.717211 263.481914 
L 447.017876 259.004141 
L 448.438044 254.526368 
L 449.966734 250.048595 
L 451.590988 245.570822 
L 453.296221 241.09305 
L 455.066587 236.615277 
L 456.885363 232.137504 
L 458.735338 227.659731 
L 460.599195 223.181958 
L 462.459871 218.704185 
L 464.300894 214.226413 
L 466.106681 209.74864 
L 467.862796 205.270867 
L 469.556161 200.793094 
L 471.175218 196.315321 
L 472.710047 191.837548 
L 474.152434 187.359776 
L 475.49589 182.882003 
L 476.735643 178.40423 
L 477.868578 173.926457 
L 478.893165 169.448684 
L 479.809351 164.970912 
L 480.618443 160.493139 
L 481.322976 156.015366 
L 481.926576 151.537593 
L 482.433827 147.05982 
L 482.85013 142.582047 
L 483.181574 138.104275 
L 483.434816 133.626502 
L 483.616961 129.148729 
L 483.73545 124.670956 
L 483.797963 120.193183 
L 483.812315 115.71541 
L 483.786365 111.237638 
L 483.727926 106.759865 
L 483.644669 102.282092 
L 483.544042 97.804319 
L 483.433177 93.326546 
L 483.318808 88.848773 
L 483.207183 84.371001 
L 483.103992 79.893228 
L 483.014291 75.415455 
L 482.942439 70.937682 
L 482.89205 66.459909 
L 482.865955 61.982136 
L 482.866181 57.504364 
L 492.197975 57.504364 
L 492.197975 57.504364 
L 492.1982 61.982136 
L 492.172105 66.459909 
L 492.121717 70.937682 
L 492.049865 75.415455 
L 491.960164 79.893228 
L 491.856973 84.371001 
L 491.745348 88.848773 
L 491.630979 93.326546 
L 491.520114 97.804319 
L 491.419487 102.282092 
L 491.33623 106.759865 
L 491.27779 111.237638 
L 491.251841 115.71541 
L 491.266193 120.193183 
L 491.328706 124.670956 
L 491.447195 129.148729 
L 491.629339 133.626502 
L 491.882582 138.104275 
L 492.214026 142.582047 
L 492.630329 147.05982 
L 493.13758 151.537593 
L 493.74118 156.015366 
L 494.445713 160.493139 
L 495.254805 164.970912 
L 496.170991 169.448684 
L 497.195578 173.926457 
L 498.328513 178.40423 
L 499.568265 182.882003 
L 500.911722 187.359776 
L 502.354108 191.837548 
L 503.888938 196.315321 
L 505.507995 200.793094 
L 507.20136 205.270867 
L 508.957475 209.74864 
L 510.763262 214.226413 
L 512.604285 218.704185 
L 514.464961 223.181958 
L 516.328818 227.659731 
L 518.178793 232.137504 
L 519.997569 236.615277 
L 521.767935 241.09305 
L 523.473168 245.570822 
L 525.097422 250.048595 
L 526.626111 254.526368 
L 528.04628 259.004141 
L 529.346945 263.481914 
L 530.519397 267.959687 
L 531.557449 272.437459 
L 532.457636 276.915232 
L 533.219332 281.393005 
L 533.844809 285.870778 
L 534.339209 290.348551 
L 534.710449 294.826324 
L 534.969044 299.304096 
L 535.127866 303.781869 
L 535.201834 308.259642 
L 535.207559 312.737415 
L 535.162932 317.215188 
L 535.086692 321.69296 
L 534.997969 326.170733 
L 534.915815 330.648506 
L 534.85875 335.126279 
L 534.844312 339.604052 
L 534.888645 344.081825 
L 535.006116 348.559597 
L 535.208973 353.03737 
L 535.507055 357.515143 
L 535.907553 361.992916 
L 536.414825 366.470689 
L 537.030267 370.948462 
L 537.75224 375.426234 
L 538.576052 379.904007 
L 539.493994 384.38178 
L 540.495432 388.859553 
L 541.566949 393.337326 
L 542.692536 397.815099 
L 543.853839 402.292871 
L 545.030445 406.770644 
L 546.200227 411.248417 
L 547.339719 415.72619 
L 548.424543 420.203963 
L 549.429868 424.681736 
L 550.330897 429.159508 
L 551.103378 433.637281 
L 551.724129 438.115054 
L 552.171555 442.592827 
L 552.426163 447.0706 
L 552.471039 451.548373 
L 552.292292 456.026145 
L 551.879431 460.503918 
L 551.225679 464.981691 
L 550.328198 469.459464 
L 549.18822 473.937237 
L 547.811075 478.415009 
L 546.206118 482.892782 
L 544.386541 487.370555 
L 542.36909 491.848328 
L 540.173686 496.326101 
L 537.822961 500.803874 
z
" clip-path="url(#pe0def26f01)" style="fill: #1f77b4; fill-opacity: 0.3"/>
   </g>
   <g id="PolyCollection_3">
    <path d="M 802.356924 516.391636 
L 692.218921 516.391636 
L 689.837184 515.686999 
L 687.744136 514.982362 
L 685.968689 514.277724 
L 684.532735 513.573087 
L 683.450517 512.86845 
L 682.728287 512.163812 
L 682.364279 511.459175 
L 682.348961 510.754538 
L 682.665579 510.0499 
L 683.290941 509.345263 
L 684.1964 508.640626 
L 685.348987 507.935988 
L 686.712641 507.231351 
L 688.249464 506.526714 
L 689.920974 505.822076 
L 691.689275 505.117439 
L 693.518131 504.412802 
L 695.373891 503.708164 
L 697.226256 503.003527 
L 699.048869 502.29889 
L 700.819721 501.594252 
L 702.521389 500.889615 
L 704.141098 500.184978 
L 705.670647 499.48034 
L 707.106191 498.775703 
L 708.447919 498.071066 
L 709.699641 497.366428 
L 710.8683 496.661791 
L 711.963438 495.957154 
L 712.996624 495.252516 
L 713.980862 494.547879 
L 714.93 493.843241 
L 715.858143 493.138604 
L 716.779096 492.433967 
L 717.705839 491.729329 
L 718.650052 491.024692 
L 719.621709 490.320055 
L 720.62873 489.615417 
L 721.676738 488.91078 
L 722.768891 488.206143 
L 723.90582 487.501505 
L 725.085661 486.796868 
L 726.304194 486.092231 
L 727.555056 485.387593 
L 728.83005 484.682956 
L 730.119508 483.978319 
L 731.412705 483.273681 
L 732.698299 482.569044 
L 733.964777 481.864407 
L 735.200882 481.159769 
L 736.396014 480.455132 
L 737.540568 479.750495 
L 738.626219 479.045857 
L 739.646124 478.34122 
L 740.595056 477.636583 
L 741.469451 476.931945 
L 742.267392 476.227308 
L 742.98852 475.522671 
L 743.633894 474.818033 
L 744.205811 474.113396 
L 744.707592 473.408759 
L 745.143357 472.704121 
L 745.517794 471.999484 
L 745.835936 471.294847 
L 746.102948 470.590209 
L 746.323951 469.885572 
L 746.503857 469.180935 
L 746.647244 468.476297 
L 746.75826 467.77166 
L 746.840557 467.067023 
L 746.897253 466.362385 
L 746.930925 465.657748 
L 746.94362 464.953111 
L 746.936895 464.248473 
L 746.911866 463.543836 
L 746.869281 462.839199 
L 746.809603 462.134561 
L 746.733098 461.429924 
L 746.639936 460.725287 
L 746.530289 460.020649 
L 746.404436 459.316012 
L 746.262856 458.611375 
L 746.106319 457.906737 
L 745.93596 457.2021 
L 745.753339 456.497463 
L 745.560477 455.792825 
L 745.359872 455.088188 
L 745.154487 454.38355 
L 744.947708 453.678913 
L 744.743274 452.974276 
L 744.545186 452.269638 
L 744.357584 451.565001 
L 744.184617 450.860364 
L 744.030291 450.155726 
L 743.898324 449.451089 
L 743.791993 448.746452 
L 743.714004 448.041814 
L 743.666378 447.337177 
L 743.650364 446.63254 
L 750.92548 446.63254 
L 750.92548 446.63254 
L 750.909466 447.337177 
L 750.86184 448.041814 
L 750.783851 448.746452 
L 750.67752 449.451089 
L 750.545553 450.155726 
L 750.391227 450.860364 
L 750.21826 451.565001 
L 750.030659 452.269638 
L 749.83257 452.974276 
L 749.628136 453.678913 
L 749.421357 454.38355 
L 749.215972 455.088188 
L 749.015368 455.792825 
L 748.822505 456.497463 
L 748.639884 457.2021 
L 748.469525 457.906737 
L 748.312988 458.611375 
L 748.171409 459.316012 
L 748.045555 460.020649 
L 747.935908 460.725287 
L 747.842746 461.429924 
L 747.766241 462.134561 
L 747.706563 462.839199 
L 747.663979 463.543836 
L 747.638949 464.248473 
L 747.632224 464.953111 
L 747.644919 465.657748 
L 747.678591 466.362385 
L 747.735287 467.067023 
L 747.817584 467.77166 
L 747.9286 468.476297 
L 748.071987 469.180935 
L 748.251893 469.885572 
L 748.472896 470.590209 
L 748.739909 471.294847 
L 749.05805 471.999484 
L 749.432487 472.704121 
L 749.868253 473.408759 
L 750.370033 474.113396 
L 750.94195 474.818033 
L 751.587324 475.522671 
L 752.308452 476.227308 
L 753.106393 476.931945 
L 753.980788 477.636583 
L 754.92972 478.34122 
L 755.949626 479.045857 
L 757.035276 479.750495 
L 758.17983 480.455132 
L 759.374962 481.159769 
L 760.611067 481.864407 
L 761.877545 482.569044 
L 763.163139 483.273681 
L 764.456336 483.978319 
L 765.745794 484.682956 
L 767.020788 485.387593 
L 768.27165 486.092231 
L 769.490183 486.796868 
L 770.670025 487.501505 
L 771.806953 488.206143 
L 772.899106 488.91078 
L 773.947114 489.615417 
L 774.954136 490.320055 
L 775.925792 491.024692 
L 776.870006 491.729329 
L 777.796749 492.433967 
L 778.717702 493.138604 
L 779.645845 493.843241 
L 780.594982 494.547879 
L 781.57922 495.252516 
L 782.612406 495.957154 
L 783.707544 496.661791 
L 784.876203 497.366428 
L 786.127925 498.071066 
L 787.469653 498.775703 
L 788.905197 499.48034 
L 790.434746 500.184978 
L 792.054455 500.889615 
L 793.756123 501.594252 
L 795.526975 502.29889 
L 797.349588 503.003527 
L 799.201953 503.708164 
L 801.057713 504.412802 
L 802.886569 505.117439 
L 804.65487 505.822076 
L 806.32638 506.526714 
L 807.863203 507.231351 
L 809.226857 507.935988 
L 810.379444 508.640626 
L 811.284903 509.345263 
L 811.910265 510.0499 
L 812.226883 510.754538 
L 812.211565 511.459175 
L 811.847557 512.163812 
L 811.125328 512.86845 
L 810.043109 513.573087 
L 808.607155 514.277724 
L 806.831708 514.982362 
L 804.73866 515.686999 
L 802.356924 516.391636 
z
" clip-path="url(#pe0def26f01)" style="fill: #1f77b4; fill-opacity: 0.3"/>
   </g>
   <g id="PolyCollection_4">
    <path d="M 1058.421803 516.391636 
L 955.66573 516.391636 
L 953.473628 515.556049 
L 951.42455 514.720461 
L 949.538796 513.884873 
L 947.835016 513.049286 
L 946.329906 512.213698 
L 945.037948 511.378111 
L 943.971195 510.542523 
L 943.139112 509.706935 
L 942.548469 508.871348 
L 942.203279 508.03576 
L 942.104805 507.200172 
L 942.251594 506.364585 
L 942.639569 505.528997 
L 943.262159 504.693409 
L 944.110454 503.857822 
L 945.173398 503.022234 
L 946.437997 502.186646 
L 947.889548 501.351059 
L 949.511877 500.515471 
L 951.287587 499.679884 
L 953.198308 498.844296 
L 955.224947 498.008708 
L 957.347938 497.173121 
L 959.547482 496.337533 
L 961.803788 495.501945 
L 964.097298 494.666358 
L 966.408904 493.83077 
L 968.720155 492.995182 
L 971.013443 492.159595 
L 973.272184 491.324007 
L 975.480967 490.488419 
L 977.625695 489.652832 
L 979.693693 488.817244 
L 981.673802 487.981657 
L 983.55644 487.146069 
L 985.33364 486.310481 
L 986.99906 485.474894 
L 988.547967 484.639306 
L 989.977193 483.803718 
L 991.285071 482.968131 
L 992.471347 482.132543 
L 993.537071 481.296955 
L 994.484479 480.461368 
L 995.316855 479.62578 
L 996.038399 478.790192 
L 996.654079 477.954605 
L 997.169495 477.119017 
L 997.590741 476.28343 
L 997.924284 475.447842 
L 998.176845 474.612254 
L 998.355305 473.776667 
L 998.466615 472.941079 
L 998.517725 472.105491 
L 998.515532 471.269904 
L 998.466835 470.434316 
L 998.378302 469.598728 
L 998.256449 468.763141 
L 998.107622 467.927553 
L 997.937987 467.091966 
L 997.753513 466.256378 
L 997.559958 465.42079 
L 997.362856 464.585203 
L 997.167487 463.749615 
L 996.978853 462.914027 
L 996.801637 462.07844 
L 996.640169 461.242852 
L 996.498377 460.407264 
L 996.379742 459.571677 
L 996.287251 458.736089 
L 996.223356 457.900501 
L 996.189938 457.064914 
L 996.188275 456.229326 
L 996.219031 455.393739 
L 996.282249 454.558151 
L 996.377365 453.722563 
L 996.503235 452.886976 
L 996.658179 452.051388 
L 996.840039 451.2158 
L 997.046249 450.380213 
L 997.273922 449.544625 
L 997.519937 448.709037 
L 997.781037 447.87345 
L 998.053927 447.037862 
L 998.335367 446.202274 
L 998.622261 445.366687 
L 998.91174 444.531099 
L 999.201227 443.695512 
L 999.488487 442.859924 
L 999.77167 442.024336 
L 1000.049327 441.188749 
L 1000.320416 440.353161 
L 1000.584287 439.517573 
L 1000.840652 438.681986 
L 1001.089552 437.846398 
L 1001.331301 437.01081 
L 1001.566427 436.175223 
L 1001.795617 435.339635 
L 1002.019648 434.504047 
L 1002.239327 433.66846 
L 1011.848205 433.66846 
L 1011.848205 433.66846 
L 1012.067884 434.504047 
L 1012.291915 435.339635 
L 1012.521105 436.175223 
L 1012.756232 437.01081 
L 1012.99798 437.846398 
L 1013.24688 438.681986 
L 1013.503246 439.517573 
L 1013.767116 440.353161 
L 1014.038205 441.188749 
L 1014.315863 442.024336 
L 1014.599046 442.859924 
L 1014.886306 443.695512 
L 1015.175792 444.531099 
L 1015.465271 445.366687 
L 1015.752166 446.202274 
L 1016.033605 447.037862 
L 1016.306495 447.87345 
L 1016.567595 448.709037 
L 1016.81361 449.544625 
L 1017.041283 450.380213 
L 1017.247494 451.2158 
L 1017.429354 452.051388 
L 1017.584298 452.886976 
L 1017.710168 453.722563 
L 1017.805284 454.558151 
L 1017.868502 455.393739 
L 1017.899258 456.229326 
L 1017.897595 457.064914 
L 1017.864176 457.900501 
L 1017.800282 458.736089 
L 1017.707791 459.571677 
L 1017.589155 460.407264 
L 1017.447363 461.242852 
L 1017.285895 462.07844 
L 1017.10868 462.914027 
L 1016.920045 463.749615 
L 1016.724677 464.585203 
L 1016.527574 465.42079 
L 1016.33402 466.256378 
L 1016.149545 467.091966 
L 1015.97991 467.927553 
L 1015.831084 468.763141 
L 1015.709231 469.598728 
L 1015.620697 470.434316 
L 1015.572 471.269904 
L 1015.569808 472.105491 
L 1015.620918 472.941079 
L 1015.732227 473.776667 
L 1015.910687 474.612254 
L 1016.163249 475.447842 
L 1016.496791 476.28343 
L 1016.918038 477.119017 
L 1017.433453 477.954605 
L 1018.049133 478.790192 
L 1018.770677 479.62578 
L 1019.603054 480.461368 
L 1020.550461 481.296955 
L 1021.616185 482.132543 
L 1022.802461 482.968131 
L 1024.110339 483.803718 
L 1025.539565 484.639306 
L 1027.088472 485.474894 
L 1028.753892 486.310481 
L 1030.531093 487.146069 
L 1032.413731 487.981657 
L 1034.39384 488.817244 
L 1036.461838 489.652832 
L 1038.606565 490.488419 
L 1040.815349 491.324007 
L 1043.074089 492.159595 
L 1045.367378 492.995182 
L 1047.678628 493.83077 
L 1049.990234 494.666358 
L 1052.283744 495.501945 
L 1054.540051 496.337533 
L 1056.739595 497.173121 
L 1058.862585 498.008708 
L 1060.889225 498.844296 
L 1062.799946 499.679884 
L 1064.575656 500.515471 
L 1066.197985 501.351059 
L 1067.649536 502.186646 
L 1068.914135 503.022234 
L 1069.977079 503.857822 
L 1070.825374 504.693409 
L 1071.447963 505.528997 
L 1071.835939 506.364585 
L 1071.982727 507.200172 
L 1071.884253 508.03576 
L 1071.539064 508.871348 
L 1070.94842 509.706935 
L 1070.116338 510.542523 
L 1069.049585 511.378111 
L 1067.757627 512.213698 
L 1066.252517 513.049286 
L 1064.548737 513.884873 
L 1062.662982 514.720461 
L 1060.613904 515.556049 
L 1058.421803 516.391636 
z
" clip-path="url(#pe0def26f01)" style="fill: #1f77b4; fill-opacity: 0.3"/>
   </g>
   <g id="matplotlib.axis_1">
    <g id="xtick_1">
     <g id="line2d_1">
      <defs>
       <path id="m3b6c251a5a" d="M 0 0 
L 0 3.5 
" style="stroke: #000000; stroke-width: 0.8"/>
      </defs>
      <g>
       <use xlink:href="#m3b6c251a5a" x="227.776234" y="539.336" style="stroke: #000000; stroke-width: 0.8"/>
      </g>
     </g>
     <g id="text_1">
      <!-- EN/RR/PLS -->
      <g transform="translate(143.961234 570.651) scale(0.32 -0.32)">
       <defs>
        <path id="DejaVuSans-45" d="M 628 4666 
L 3578 4666 
L 3578 4134 
L 1259 4134 
L 1259 2753 
L 3481 2753 
L 3481 2222 
L 1259 2222 
L 1259 531 
L 3634 531 
L 3634 0 
L 628 0 
L 628 4666 
z
" transform="scale(0.015625)"/>
        <path id="DejaVuSans-4e" d="M 628 4666 
L 1478 4666 
L 3547 763 
L 3547 4666 
L 4159 4666 
L 4159 0 
L 3309 0 
L 1241 3903 
L 1241 0 
L 628 0 
L 628 4666 
z
" transform="scale(0.015625)"/>
        <path id="DejaVuSans-2f" d="M 1625 4666 
L 2156 4666 
L 531 -594 
L 0 -594 
L 1625 4666 
z
" transform="scale(0.015625)"/>
        <path id="DejaVuSans-52" d="M 2841 2188 
Q 3044 2119 3236 1894 
Q 3428 1669 3622 1275 
L 4263 0 
L 3584 0 
L 2988 1197 
Q 2756 1666 2539 1819 
Q 2322 1972 1947 1972 
L 1259 1972 
L 1259 0 
L 628 0 
L 628 4666 
L 2053 4666 
Q 2853 4666 3247 4331 
Q 3641 3997 3641 3322 
Q 3641 2881 3436 2590 
Q 3231 2300 2841 2188 
z
M 1259 4147 
L 1259 2491 
L 2053 2491 
Q 2509 2491 2742 2702 
Q 2975 2913 2975 3322 
Q 2975 3731 2742 3939 
Q 2509 4147 2053 4147 
L 1259 4147 
z
" transform="scale(0.015625)"/>
        <path id="DejaVuSans-50" d="M 1259 4147 
L 1259 2394 
L 2053 2394 
Q 2494 2394 2734 2622 
Q 2975 2850 2975 3272 
Q 2975 3691 2734 3919 
Q 2494 4147 2053 4147 
L 1259 4147 
z
M 628 4666 
L 2053 4666 
Q 2838 4666 3239 4311 
Q 3641 3956 3641 3272 
Q 3641 2581 3239 2228 
Q 2838 1875 2053 1875 
L 1259 1875 
L 1259 0 
L 628 0 
L 628 4666 
z
" transform="scale(0.015625)"/>
        <path id="DejaVuSans-4c" d="M 628 4666 
L 1259 4666 
L 1259 531 
L 3531 531 
L 3531 0 
L 628 0 
L 628 4666 
z
" transform="scale(0.015625)"/>
        <path id="DejaVuSans-53" d="M 3425 4513 
L 3425 3897 
Q 3066 4069 2747 4153 
Q 2428 4238 2131 4238 
Q 1616 4238 1336 4038 
Q 1056 3838 1056 3469 
Q 1056 3159 1242 3001 
Q 1428 2844 1947 2747 
L 2328 2669 
Q 3034 2534 3370 2195 
Q 3706 1856 3706 1288 
Q 3706 609 3251 259 
Q 2797 -91 1919 -91 
Q 1588 -91 1214 -16 
Q 841 59 441 206 
L 441 856 
Q 825 641 1194 531 
Q 1563 422 1919 422 
Q 2459 422 2753 634 
Q 3047 847 3047 1241 
Q 3047 1584 2836 1778 
Q 2625 1972 2144 2069 
L 1759 2144 
Q 1053 2284 737 2584 
Q 422 2884 422 3419 
Q 422 4038 858 4394 
Q 1294 4750 2059 4750 
Q 2388 4750 2728 4690 
Q 3069 4631 3425 4513 
z
" transform="scale(0.015625)"/>
       </defs>
       <use xlink:href="#DejaVuSans-45"/>
       <use xlink:href="#DejaVuSans-4e" x="63.183594"/>
       <use xlink:href="#DejaVuSans-2f" x="137.988281"/>
       <use xlink:href="#DejaVuSans-52" x="171.679688"/>
       <use xlink:href="#DejaVuSans-52" x="241.162109"/>
       <use xlink:href="#DejaVuSans-2f" x="310.644531"/>
       <use xlink:href="#DejaVuSans-50" x="344.335938"/>
       <use xlink:href="#DejaVuSans-4c" x="404.638672"/>
       <use xlink:href="#DejaVuSans-53" x="460.351562"/>
      </g>
     </g>
    </g>
    <g id="xtick_2">
     <g id="line2d_2">
      <g>
       <use xlink:href="#m3b6c251a5a" x="357.654156" y="539.336" style="stroke: #000000; stroke-width: 0.8"/>
      </g>
     </g>
    </g>
    <g id="xtick_3">
     <g id="line2d_3">
      <g>
       <use xlink:href="#m3b6c251a5a" x="487.532078" y="539.336" style="stroke: #000000; stroke-width: 0.8"/>
      </g>
     </g>
     <g id="text_2">
      <!-- EN/RR/PLS -->
      <g transform="translate(403.717078 570.651) scale(0.32 -0.32)">
       <use xlink:href="#DejaVuSans-45"/>
       <use xlink:href="#DejaVuSans-4e" x="63.183594"/>
       <use xlink:href="#DejaVuSans-2f" x="137.988281"/>
       <use xlink:href="#DejaVuSans-52" x="171.679688"/>
       <use xlink:href="#DejaVuSans-52" x="241.162109"/>
       <use xlink:href="#DejaVuSans-2f" x="310.644531"/>
       <use xlink:href="#DejaVuSans-50" x="344.335938"/>
       <use xlink:href="#DejaVuSans-4c" x="404.638672"/>
       <use xlink:href="#DejaVuSans-53" x="460.351562"/>
      </g>
      <!-- (Nested) -->
      <g transform="translate(418.622078 606.484) scale(0.32 -0.32)">
       <defs>
        <path id="DejaVuSans-28" d="M 1984 4856 
Q 1566 4138 1362 3434 
Q 1159 2731 1159 2009 
Q 1159 1288 1364 580 
Q 1569 -128 1984 -844 
L 1484 -844 
Q 1016 -109 783 600 
Q 550 1309 550 2009 
Q 550 2706 781 3412 
Q 1013 4119 1484 4856 
L 1984 4856 
z
" transform="scale(0.015625)"/>
        <path id="DejaVuSans-65" d="M 3597 1894 
L 3597 1613 
L 953 1613 
Q 991 1019 1311 708 
Q 1631 397 2203 397 
Q 2534 397 2845 478 
Q 3156 559 3463 722 
L 3463 178 
Q 3153 47 2828 -22 
Q 2503 -91 2169 -91 
Q 1331 -91 842 396 
Q 353 884 353 1716 
Q 353 2575 817 3079 
Q 1281 3584 2069 3584 
Q 2775 3584 3186 3129 
Q 3597 2675 3597 1894 
z
M 3022 2063 
Q 3016 2534 2758 2815 
Q 2500 3097 2075 3097 
Q 1594 3097 1305 2825 
Q 1016 2553 972 2059 
L 3022 2063 
z
" transform="scale(0.015625)"/>
        <path id="DejaVuSans-73" d="M 2834 3397 
L 2834 2853 
Q 2591 2978 2328 3040 
Q 2066 3103 1784 3103 
Q 1356 3103 1142 2972 
Q 928 2841 928 2578 
Q 928 2378 1081 2264 
Q 1234 2150 1697 2047 
L 1894 2003 
Q 2506 1872 2764 1633 
Q 3022 1394 3022 966 
Q 3022 478 2636 193 
Q 2250 -91 1575 -91 
Q 1294 -91 989 -36 
Q 684 19 347 128 
L 347 722 
Q 666 556 975 473 
Q 1284 391 1588 391 
Q 1994 391 2212 530 
Q 2431 669 2431 922 
Q 2431 1156 2273 1281 
Q 2116 1406 1581 1522 
L 1381 1569 
Q 847 1681 609 1914 
Q 372 2147 372 2553 
Q 372 3047 722 3315 
Q 1072 3584 1716 3584 
Q 2034 3584 2315 3537 
Q 2597 3491 2834 3397 
z
" transform="scale(0.015625)"/>
        <path id="DejaVuSans-74" d="M 1172 4494 
L 1172 3500 
L 2356 3500 
L 2356 3053 
L 1172 3053 
L 1172 1153 
Q 1172 725 1289 603 
Q 1406 481 1766 481 
L 2356 481 
L 2356 0 
L 1766 0 
Q 1100 0 847 248 
Q 594 497 594 1153 
L 594 3053 
L 172 3053 
L 172 3500 
L 594 3500 
L 594 4494 
L 1172 4494 
z
" transform="scale(0.015625)"/>
        <path id="DejaVuSans-64" d="M 2906 2969 
L 2906 4863 
L 3481 4863 
L 3481 0 
L 2906 0 
L 2906 525 
Q 2725 213 2448 61 
Q 2172 -91 1784 -91 
Q 1150 -91 751 415 
Q 353 922 353 1747 
Q 353 2572 751 3078 
Q 1150 3584 1784 3584 
Q 2172 3584 2448 3432 
Q 2725 3281 2906 2969 
z
M 947 1747 
Q 947 1113 1208 752 
Q 1469 391 1925 391 
Q 2381 391 2643 752 
Q 2906 1113 2906 1747 
Q 2906 2381 2643 2742 
Q 2381 3103 1925 3103 
Q 1469 3103 1208 2742 
Q 947 2381 947 1747 
z
" transform="scale(0.015625)"/>
        <path id="DejaVuSans-29" d="M 513 4856 
L 1013 4856 
Q 1481 4119 1714 3412 
Q 1947 2706 1947 2009 
Q 1947 1309 1714 600 
Q 1481 -109 1013 -844 
L 513 -844 
Q 928 -128 1133 580 
Q 1338 1288 1338 2009 
Q 1338 2731 1133 3434 
Q 928 4138 513 4856 
z
" transform="scale(0.015625)"/>
       </defs>
       <use xlink:href="#DejaVuSans-28"/>
       <use xlink:href="#DejaVuSans-4e" x="39.013672"/>
       <use xlink:href="#DejaVuSans-65" x="113.818359"/>
       <use xlink:href="#DejaVuSans-73" x="175.341797"/>
       <use xlink:href="#DejaVuSans-74" x="227.441406"/>
       <use xlink:href="#DejaVuSans-65" x="266.650391"/>
       <use xlink:href="#DejaVuSans-64" x="328.173828"/>
       <use xlink:href="#DejaVuSans-29" x="391.650391"/>
      </g>
     </g>
    </g>
    <g id="xtick_4">
     <g id="line2d_4">
      <g>
       <use xlink:href="#m3b6c251a5a" x="617.41" y="539.336" style="stroke: #000000; stroke-width: 0.8"/>
      </g>
     </g>
    </g>
    <g id="xtick_5">
     <g id="line2d_5">
      <g>
       <use xlink:href="#m3b6c251a5a" x="747.287922" y="539.336" style="stroke: #000000; stroke-width: 0.8"/>
      </g>
     </g>
     <g id="text_3">
      <!-- Our ANN -->
      <g transform="translate(678.005422 570.651) scale(0.32 -0.32)">
       <defs>
        <path id="DejaVuSans-4f" d="M 2522 4238 
Q 1834 4238 1429 3725 
Q 1025 3213 1025 2328 
Q 1025 1447 1429 934 
Q 1834 422 2522 422 
Q 3209 422 3611 934 
Q 4013 1447 4013 2328 
Q 4013 3213 3611 3725 
Q 3209 4238 2522 4238 
z
M 2522 4750 
Q 3503 4750 4090 4092 
Q 4678 3434 4678 2328 
Q 4678 1225 4090 567 
Q 3503 -91 2522 -91 
Q 1538 -91 948 565 
Q 359 1222 359 2328 
Q 359 3434 948 4092 
Q 1538 4750 2522 4750 
z
" transform="scale(0.015625)"/>
        <path id="DejaVuSans-75" d="M 544 1381 
L 544 3500 
L 1119 3500 
L 1119 1403 
Q 1119 906 1312 657 
Q 1506 409 1894 409 
Q 2359 409 2629 706 
Q 2900 1003 2900 1516 
L 2900 3500 
L 3475 3500 
L 3475 0 
L 2900 0 
L 2900 538 
Q 2691 219 2414 64 
Q 2138 -91 1772 -91 
Q 1169 -91 856 284 
Q 544 659 544 1381 
z
M 1991 3584 
L 1991 3584 
z
" transform="scale(0.015625)"/>
        <path id="DejaVuSans-72" d="M 2631 2963 
Q 2534 3019 2420 3045 
Q 2306 3072 2169 3072 
Q 1681 3072 1420 2755 
Q 1159 2438 1159 1844 
L 1159 0 
L 581 0 
L 581 3500 
L 1159 3500 
L 1159 2956 
Q 1341 3275 1631 3429 
Q 1922 3584 2338 3584 
Q 2397 3584 2469 3576 
Q 2541 3569 2628 3553 
L 2631 2963 
z
" transform="scale(0.015625)"/>
        <path id="DejaVuSans-20" transform="scale(0.015625)"/>
        <path id="DejaVuSans-41" d="M 2188 4044 
L 1331 1722 
L 3047 1722 
L 2188 4044 
z
M 1831 4666 
L 2547 4666 
L 4325 0 
L 3669 0 
L 3244 1197 
L 1141 1197 
L 716 0 
L 50 0 
L 1831 4666 
z
" transform="scale(0.015625)"/>
       </defs>
       <use xlink:href="#DejaVuSans-4f"/>
       <use xlink:href="#DejaVuSans-75" x="78.710938"/>
       <use xlink:href="#DejaVuSans-72" x="142.089844"/>
       <use xlink:href="#DejaVuSans-20" x="183.203125"/>
       <use xlink:href="#DejaVuSans-41" x="214.990234"/>
       <use xlink:href="#DejaVuSans-4e" x="283.398438"/>
       <use xlink:href="#DejaVuSans-4e" x="358.203125"/>
      </g>
     </g>
    </g>
    <g id="xtick_6">
     <g id="line2d_6">
      <g>
       <use xlink:href="#m3b6c251a5a" x="877.165844" y="539.336" style="stroke: #000000; stroke-width: 0.8"/>
      </g>
     </g>
    </g>
    <g id="xtick_7">
     <g id="line2d_7">
      <g>
       <use xlink:href="#m3b6c251a5a" x="1007.043766" y="539.336" style="stroke: #000000; stroke-width: 0.8"/>
      </g>
     </g>
     <g id="text_4">
      <!-- Our ANN -->
      <g transform="translate(937.761266 570.651) scale(0.32 -0.32)">
       <use xlink:href="#DejaVuSans-4f"/>
       <use xlink:href="#DejaVuSans-75" x="78.710938"/>
       <use xlink:href="#DejaVuSans-72" x="142.089844"/>
       <use xlink:href="#DejaVuSans-20" x="183.203125"/>
       <use xlink:href="#DejaVuSans-41" x="214.990234"/>
       <use xlink:href="#DejaVuSans-4e" x="283.398438"/>
       <use xlink:href="#DejaVuSans-4e" x="358.203125"/>
      </g>
      <!-- (Nested) -->
      <g transform="translate(938.133766 606.484) scale(0.32 -0.32)">
       <use xlink:href="#DejaVuSans-28"/>
       <use xlink:href="#DejaVuSans-4e" x="39.013672"/>
       <use xlink:href="#DejaVuSans-65" x="113.818359"/>
       <use xlink:href="#DejaVuSans-73" x="175.341797"/>
       <use xlink:href="#DejaVuSans-74" x="227.441406"/>
       <use xlink:href="#DejaVuSans-65" x="266.650391"/>
       <use xlink:href="#DejaVuSans-64" x="328.173828"/>
       <use xlink:href="#DejaVuSans-29" x="391.650391"/>
      </g>
     </g>
    </g>
   </g>
   <g id="matplotlib.axis_2">
    <g id="ytick_1">
     <g id="line2d_8">
      <defs>
       <path id="m1bdb296aec" d="M 0 0 
L -3.5 0 
" style="stroke: #000000; stroke-width: 0.8"/>
      </defs>
      <g>
       <use xlink:href="#m1bdb296aec" x="117.38" y="516.391636" style="stroke: #000000; stroke-width: 0.8"/>
      </g>
     </g>
     <g id="text_5">
      <!-- 0 -->
      <g transform="translate(90.02 528.549136) scale(0.32 -0.32)">
       <defs>
        <path id="DejaVuSans-30" d="M 2034 4250 
Q 1547 4250 1301 3770 
Q 1056 3291 1056 2328 
Q 1056 1369 1301 889 
Q 1547 409 2034 409 
Q 2525 409 2770 889 
Q 3016 1369 3016 2328 
Q 3016 3291 2770 3770 
Q 2525 4250 2034 4250 
z
M 2034 4750 
Q 2819 4750 3233 4129 
Q 3647 3509 3647 2328 
Q 3647 1150 3233 529 
Q 2819 -91 2034 -91 
Q 1250 -91 836 529 
Q 422 1150 422 2328 
Q 422 3509 836 4129 
Q 1250 4750 2034 4750 
z
" transform="scale(0.015625)"/>
       </defs>
       <use xlink:href="#DejaVuSans-30"/>
      </g>
     </g>
    </g>
    <g id="ytick_2">
     <g id="line2d_9">
      <g>
       <use xlink:href="#m1bdb296aec" x="117.38" y="413.502113" style="stroke: #000000; stroke-width: 0.8"/>
      </g>
     </g>
     <g id="text_6">
      <!-- 20 -->
      <g transform="translate(69.66 425.659613) scale(0.32 -0.32)">
       <defs>
        <path id="DejaVuSans-32" d="M 1228 531 
L 3431 531 
L 3431 0 
L 469 0 
L 469 531 
Q 828 903 1448 1529 
Q 2069 2156 2228 2338 
Q 2531 2678 2651 2914 
Q 2772 3150 2772 3378 
Q 2772 3750 2511 3984 
Q 2250 4219 1831 4219 
Q 1534 4219 1204 4116 
Q 875 4013 500 3803 
L 500 4441 
Q 881 4594 1212 4672 
Q 1544 4750 1819 4750 
Q 2544 4750 2975 4387 
Q 3406 4025 3406 3419 
Q 3406 3131 3298 2873 
Q 3191 2616 2906 2266 
Q 2828 2175 2409 1742 
Q 1991 1309 1228 531 
z
" transform="scale(0.015625)"/>
       </defs>
       <use xlink:href="#DejaVuSans-32"/>
       <use xlink:href="#DejaVuSans-30" x="63.623047"/>
      </g>
     </g>
    </g>
    <g id="ytick_3">
     <g id="line2d_10">
      <g>
       <use xlink:href="#m1bdb296aec" x="117.38" y="310.61259" style="stroke: #000000; stroke-width: 0.8"/>
      </g>
     </g>
     <g id="text_7">
      <!-- 40 -->
      <g transform="translate(69.66 322.77009) scale(0.32 -0.32)">
       <defs>
        <path id="DejaVuSans-34" d="M 2419 4116 
L 825 1625 
L 2419 1625 
L 2419 4116 
z
M 2253 4666 
L 3047 4666 
L 3047 1625 
L 3713 1625 
L 3713 1100 
L 3047 1100 
L 3047 0 
L 2419 0 
L 2419 1100 
L 313 1100 
L 313 1709 
L 2253 4666 
z
" transform="scale(0.015625)"/>
       </defs>
       <use xlink:href="#DejaVuSans-34"/>
       <use xlink:href="#DejaVuSans-30" x="63.623047"/>
      </g>
     </g>
    </g>
    <g id="ytick_4">
     <g id="line2d_11">
      <g>
       <use xlink:href="#m1bdb296aec" x="117.38" y="207.723067" style="stroke: #000000; stroke-width: 0.8"/>
      </g>
     </g>
     <g id="text_8">
      <!-- 60 -->
      <g transform="translate(69.66 219.880567) scale(0.32 -0.32)">
       <defs>
        <path id="DejaVuSans-36" d="M 2113 2584 
Q 1688 2584 1439 2293 
Q 1191 2003 1191 1497 
Q 1191 994 1439 701 
Q 1688 409 2113 409 
Q 2538 409 2786 701 
Q 3034 994 3034 1497 
Q 3034 2003 2786 2293 
Q 2538 2584 2113 2584 
z
M 3366 4563 
L 3366 3988 
Q 3128 4100 2886 4159 
Q 2644 4219 2406 4219 
Q 1781 4219 1451 3797 
Q 1122 3375 1075 2522 
Q 1259 2794 1537 2939 
Q 1816 3084 2150 3084 
Q 2853 3084 3261 2657 
Q 3669 2231 3669 1497 
Q 3669 778 3244 343 
Q 2819 -91 2113 -91 
Q 1303 -91 875 529 
Q 447 1150 447 2328 
Q 447 3434 972 4092 
Q 1497 4750 2381 4750 
Q 2619 4750 2861 4703 
Q 3103 4656 3366 4563 
z
" transform="scale(0.015625)"/>
       </defs>
       <use xlink:href="#DejaVuSans-36"/>
       <use xlink:href="#DejaVuSans-30" x="63.623047"/>
      </g>
     </g>
    </g>
    <g id="ytick_5">
     <g id="line2d_12">
      <g>
       <use xlink:href="#m1bdb296aec" x="117.38" y="104.833544" style="stroke: #000000; stroke-width: 0.8"/>
      </g>
     </g>
     <g id="text_9">
      <!-- 80 -->
      <g transform="translate(69.66 116.991044) scale(0.32 -0.32)">
       <defs>
        <path id="DejaVuSans-38" d="M 2034 2216 
Q 1584 2216 1326 1975 
Q 1069 1734 1069 1313 
Q 1069 891 1326 650 
Q 1584 409 2034 409 
Q 2484 409 2743 651 
Q 3003 894 3003 1313 
Q 3003 1734 2745 1975 
Q 2488 2216 2034 2216 
z
M 1403 2484 
Q 997 2584 770 2862 
Q 544 3141 544 3541 
Q 544 4100 942 4425 
Q 1341 4750 2034 4750 
Q 2731 4750 3128 4425 
Q 3525 4100 3525 3541 
Q 3525 3141 3298 2862 
Q 3072 2584 2669 2484 
Q 3125 2378 3379 2068 
Q 3634 1759 3634 1313 
Q 3634 634 3220 271 
Q 2806 -91 2034 -91 
Q 1263 -91 848 271 
Q 434 634 434 1313 
Q 434 1759 690 2068 
Q 947 2378 1403 2484 
z
M 1172 3481 
Q 1172 3119 1398 2916 
Q 1625 2713 2034 2713 
Q 2441 2713 2670 2916 
Q 2900 3119 2900 3481 
Q 2900 3844 2670 4047 
Q 2441 4250 2034 4250 
Q 1625 4250 1398 4047 
Q 1172 3844 1172 3481 
z
" transform="scale(0.015625)"/>
       </defs>
       <use xlink:href="#DejaVuSans-38"/>
       <use xlink:href="#DejaVuSans-30" x="63.623047"/>
      </g>
     </g>
    </g>
    <g id="text_10">
     <!-- Percent Relative Error -->
     <g transform="translate(59.005 460.8205) rotate(-90) scale(0.32 -0.32)">
      <defs>
       <path id="DejaVuSans-63" d="M 3122 3366 
L 3122 2828 
Q 2878 2963 2633 3030 
Q 2388 3097 2138 3097 
Q 1578 3097 1268 2742 
Q 959 2388 959 1747 
Q 959 1106 1268 751 
Q 1578 397 2138 397 
Q 2388 397 2633 464 
Q 2878 531 3122 666 
L 3122 134 
Q 2881 22 2623 -34 
Q 2366 -91 2075 -91 
Q 1284 -91 818 406 
Q 353 903 353 1747 
Q 353 2603 823 3093 
Q 1294 3584 2113 3584 
Q 2378 3584 2631 3529 
Q 2884 3475 3122 3366 
z
" transform="scale(0.015625)"/>
       <path id="DejaVuSans-6e" d="M 3513 2113 
L 3513 0 
L 2938 0 
L 2938 2094 
Q 2938 2591 2744 2837 
Q 2550 3084 2163 3084 
Q 1697 3084 1428 2787 
Q 1159 2491 1159 1978 
L 1159 0 
L 581 0 
L 581 3500 
L 1159 3500 
L 1159 2956 
Q 1366 3272 1645 3428 
Q 1925 3584 2291 3584 
Q 2894 3584 3203 3211 
Q 3513 2838 3513 2113 
z
" transform="scale(0.015625)"/>
       <path id="DejaVuSans-6c" d="M 603 4863 
L 1178 4863 
L 1178 0 
L 603 0 
L 603 4863 
z
" transform="scale(0.015625)"/>
       <path id="DejaVuSans-61" d="M 2194 1759 
Q 1497 1759 1228 1600 
Q 959 1441 959 1056 
Q 959 750 1161 570 
Q 1363 391 1709 391 
Q 2188 391 2477 730 
Q 2766 1069 2766 1631 
L 2766 1759 
L 2194 1759 
z
M 3341 1997 
L 3341 0 
L 2766 0 
L 2766 531 
Q 2569 213 2275 61 
Q 1981 -91 1556 -91 
Q 1019 -91 701 211 
Q 384 513 384 1019 
Q 384 1609 779 1909 
Q 1175 2209 1959 2209 
L 2766 2209 
L 2766 2266 
Q 2766 2663 2505 2880 
Q 2244 3097 1772 3097 
Q 1472 3097 1187 3025 
Q 903 2953 641 2809 
L 641 3341 
Q 956 3463 1253 3523 
Q 1550 3584 1831 3584 
Q 2591 3584 2966 3190 
Q 3341 2797 3341 1997 
z
" transform="scale(0.015625)"/>
       <path id="DejaVuSans-69" d="M 603 3500 
L 1178 3500 
L 1178 0 
L 603 0 
L 603 3500 
z
M 603 4863 
L 1178 4863 
L 1178 4134 
L 603 4134 
L 603 4863 
z
" transform="scale(0.015625)"/>
       <path id="DejaVuSans-76" d="M 191 3500 
L 800 3500 
L 1894 563 
L 2988 3500 
L 3597 3500 
L 2284 0 
L 1503 0 
L 191 3500 
z
" transform="scale(0.015625)"/>
       <path id="DejaVuSans-6f" d="M 1959 3097 
Q 1497 3097 1228 2736 
Q 959 2375 959 1747 
Q 959 1119 1226 758 
Q 1494 397 1959 397 
Q 2419 397 2687 759 
Q 2956 1122 2956 1747 
Q 2956 2369 2687 2733 
Q 2419 3097 1959 3097 
z
M 1959 3584 
Q 2709 3584 3137 3096 
Q 3566 2609 3566 1747 
Q 3566 888 3137 398 
Q 2709 -91 1959 -91 
Q 1206 -91 779 398 
Q 353 888 353 1747 
Q 353 2609 779 3096 
Q 1206 3584 1959 3584 
z
" transform="scale(0.015625)"/>
      </defs>
      <use xlink:href="#DejaVuSans-50"/>
      <use xlink:href="#DejaVuSans-65" x="56.677734"/>
      <use xlink:href="#DejaVuSans-72" x="118.201172"/>
      <use xlink:href="#DejaVuSans-63" x="157.064453"/>
      <use xlink:href="#DejaVuSans-65" x="212.044922"/>
      <use xlink:href="#DejaVuSans-6e" x="273.568359"/>
      <use xlink:href="#DejaVuSans-74" x="336.947266"/>
      <use xlink:href="#DejaVuSans-20" x="376.15625"/>
      <use xlink:href="#DejaVuSans-52" x="407.943359"/>
      <use xlink:href="#DejaVuSans-65" x="472.925781"/>
      <use xlink:href="#DejaVuSans-6c" x="534.449219"/>
      <use xlink:href="#DejaVuSans-61" x="562.232422"/>
      <use xlink:href="#DejaVuSans-74" x="623.511719"/>
      <use xlink:href="#DejaVuSans-69" x="662.720703"/>
      <use xlink:href="#DejaVuSans-76" x="690.503906"/>
      <use xlink:href="#DejaVuSans-65" x="749.683594"/>
      <use xlink:href="#DejaVuSans-20" x="811.207031"/>
      <use xlink:href="#DejaVuSans-45" x="842.994141"/>
      <use xlink:href="#DejaVuSans-72" x="906.177734"/>
      <use xlink:href="#DejaVuSans-72" x="945.541016"/>
      <use xlink:href="#DejaVuSans-6f" x="984.404297"/>
      <use xlink:href="#DejaVuSans-72" x="1045.585938"/>
     </g>
    </g>
   </g>
   <g id="LineCollection_1">
    <path d="M 195.306753 57.504364 
L 260.245714 57.504364 
" clip-path="url(#pe0def26f01)" style="fill: none; stroke: #1f77b4; stroke-width: 1.5"/>
    <path d="M 455.062597 57.504364 
L 520.001558 57.504364 
" clip-path="url(#pe0def26f01)" style="fill: none; stroke: #1f77b4; stroke-width: 1.5"/>
    <path d="M 714.818442 446.63254 
L 779.757403 446.63254 
" clip-path="url(#pe0def26f01)" style="fill: none; stroke: #1f77b4; stroke-width: 1.5"/>
    <path d="M 974.574286 433.66846 
L 1039.513247 433.66846 
" clip-path="url(#pe0def26f01)" style="fill: none; stroke: #1f77b4; stroke-width: 1.5"/>
   </g>
   <g id="LineCollection_2">
    <path d="M 195.306753 510.681268 
L 260.245714 510.681268 
" clip-path="url(#pe0def26f01)" style="fill: none; stroke: #1f77b4; stroke-width: 1.5"/>
    <path d="M 455.062597 500.803874 
L 520.001558 500.803874 
" clip-path="url(#pe0def26f01)" style="fill: none; stroke: #1f77b4; stroke-width: 1.5"/>
    <path d="M 714.818442 516.391636 
L 779.757403 516.391636 
" clip-path="url(#pe0def26f01)" style="fill: none; stroke: #1f77b4; stroke-width: 1.5"/>
    <path d="M 974.574286 516.391636 
L 1039.513247 516.391636 
" clip-path="url(#pe0def26f01)" style="fill: none; stroke: #1f77b4; stroke-width: 1.5"/>
   </g>
   <g id="LineCollection_3">
    <path d="M 227.776234 510.681268 
L 227.776234 57.504364 
" clip-path="url(#pe0def26f01)" style="fill: none; stroke: #1f77b4; stroke-width: 1.5"/>
    <path d="M 487.532078 500.803874 
L 487.532078 57.504364 
" clip-path="url(#pe0def26f01)" style="fill: none; stroke: #1f77b4; stroke-width: 1.5"/>
    <path d="M 747.287922 516.391636 
L 747.287922 446.63254 
" clip-path="url(#pe0def26f01)" style="fill: none; stroke: #1f77b4; stroke-width: 1.5"/>
    <path d="M 1007.043766 516.391636 
L 1007.043766 433.66846 
" clip-path="url(#pe0def26f01)" style="fill: none; stroke: #1f77b4; stroke-width: 1.5"/>
   </g>
   <g id="LineCollection_4">
    <path d="M 195.306753 381.760695 
L 260.245714 381.760695 
" clip-path="url(#pe0def26f01)" style="fill: none; stroke: #1f77b4; stroke-width: 1.5"/>
    <path d="M 455.062597 397.605682 
L 520.001558 397.605682 
" clip-path="url(#pe0def26f01)" style="fill: none; stroke: #1f77b4; stroke-width: 1.5"/>
    <path d="M 714.818442 508.211919 
L 779.757403 508.211919 
" clip-path="url(#pe0def26f01)" style="fill: none; stroke: #1f77b4; stroke-width: 1.5"/>
    <path d="M 974.574286 505.536792 
L 1039.513247 505.536792 
" clip-path="url(#pe0def26f01)" style="fill: none; stroke: #1f77b4; stroke-width: 1.5"/>
   </g>
   <g id="patch_3">
    <path d="M 117.38 539.336 
L 117.38 34.56 
" style="fill: none; stroke: #000000; stroke-width: 0.8; stroke-linejoin: miter; stroke-linecap: square"/>
   </g>
   <g id="patch_4">
    <path d="M 1117.44 539.336 
L 1117.44 34.56 
" style="fill: none; stroke: #000000; stroke-width: 0.8; stroke-linejoin: miter; stroke-linecap: square"/>
   </g>
   <g id="patch_5">
    <path d="M 117.38 539.336 
L 1117.44 539.336 
" style="fill: none; stroke: #000000; stroke-width: 0.8; stroke-linejoin: miter; stroke-linecap: square"/>
   </g>
   <g id="patch_6">
    <path d="M 117.38 34.56 
L 1117.44 34.56 
" style="fill: none; stroke: #000000; stroke-width: 0.8; stroke-linejoin: miter; stroke-linecap: square"/>
   </g>
  </g>
 </g>
 <defs>
  <clipPath id="pe0def26f01">
   <rect x="117.38" y="34.56" width="1000.06" height="504.776"/>
  </clipPath>
 </defs>
</svg>
